<svg width="450" height="381" viewBox="0 0 450 381" fill="none" xmlns="http://www.w3.org/2000/svg">
<circle cx="225.5" cy="190.5" r="175.5" fill="#EEEEEE" stroke="#393E46" stroke-width="30"/>
<circle cx="225.5" cy="190.5" r="105" fill="#EEEEEE" stroke="#393E46" stroke-width="5"/>
<rect x="9" y="123" width="432" height="134" fill="#EEEEEE" stroke="#393E46" stroke-width="18"/>
<path d="M44.1513 210L31.8313 171.5H45.1963L55.1513 204.005H48.4413L59.0013 171.5H70.9363L80.7813 204.005H74.3463L84.7413 171.5H97.0613L84.7413 210H70.8263L62.7963 183.38H66.5363L58.0663 210H44.1513ZM111.824 185.8H128.984V195.15H111.824V185.8ZM112.704 200.21H131.954V210H99.9436V171.5H131.239V181.29H112.704V200.21ZM136.95 210V171.5H157.52C162.837 171.5 166.76 172.453 169.29 174.36C171.82 176.23 173.085 178.632 173.085 181.565C173.085 183.508 172.535 185.25 171.435 186.79C170.372 188.293 168.814 189.485 166.76 190.365C164.707 191.245 162.177 191.685 159.17 191.685L160.27 188.715C163.277 188.715 165.862 189.137 168.025 189.98C170.225 190.823 171.912 192.052 173.085 193.665C174.295 195.242 174.9 197.148 174.9 199.385C174.9 202.722 173.507 205.325 170.72 207.195C167.97 209.065 163.937 210 158.62 210H136.95ZM149.71 200.925H157.52C158.95 200.925 160.014 200.668 160.71 200.155C161.444 199.642 161.81 198.89 161.81 197.9C161.81 196.91 161.444 196.158 160.71 195.645C160.014 195.132 158.95 194.875 157.52 194.875H148.83V186.295H155.76C157.227 186.295 158.29 186.057 158.95 185.58C159.647 185.067 159.995 184.352 159.995 183.435C159.995 182.482 159.647 181.767 158.95 181.29C158.29 180.813 157.227 180.575 155.76 180.575H149.71V200.925ZM195.979 210V171.5H214.954C219.244 171.5 223.02 172.288 226.284 173.865C229.547 175.405 232.095 177.605 233.929 180.465C235.762 183.325 236.679 186.735 236.679 190.695C236.679 194.692 235.762 198.138 233.929 201.035C232.095 203.895 229.547 206.113 226.284 207.69C223.02 209.23 219.244 210 214.954 210H195.979ZM208.959 199.88H214.404C216.237 199.88 217.832 199.532 219.189 198.835C220.582 198.138 221.664 197.112 222.434 195.755C223.204 194.362 223.589 192.675 223.589 190.695C223.589 188.752 223.204 187.102 222.434 185.745C221.664 184.388 220.582 183.362 219.189 182.665C217.832 181.968 216.237 181.62 214.404 181.62H208.959V199.88ZM253.298 185.8H270.458V195.15H253.298V185.8ZM254.178 200.21H273.428V210H241.418V171.5H272.713V181.29H254.178V200.21ZM294.914 210V171.5H313.449C317.043 171.5 320.141 172.087 322.744 173.26C325.384 174.433 327.419 176.12 328.849 178.32C330.279 180.483 330.994 183.05 330.994 186.02C330.994 188.99 330.279 191.557 328.849 193.72C327.419 195.883 325.384 197.57 322.744 198.78C320.141 199.953 317.043 200.54 313.449 200.54H302.119L307.894 194.985V210H294.914ZM307.894 196.415L302.119 190.53H312.624C314.421 190.53 315.741 190.127 316.584 189.32C317.464 188.513 317.904 187.413 317.904 186.02C317.904 184.627 317.464 183.527 316.584 182.72C315.741 181.913 314.421 181.51 312.624 181.51H302.119L307.894 175.625V196.415ZM335.251 210V171.5H353.786C357.38 171.5 360.478 172.087 363.081 173.26C365.721 174.433 367.756 176.12 369.186 178.32C370.616 180.483 371.331 183.05 371.331 186.02C371.331 188.99 370.616 191.557 369.186 193.72C367.756 195.847 365.721 197.478 363.081 198.615C360.478 199.752 357.38 200.32 353.786 200.32H342.456L348.231 194.985V210H335.251ZM358.296 210L348.836 195.975H362.586L372.156 210H358.296ZM348.231 196.415L342.456 190.53H352.961C354.758 190.53 356.078 190.127 356.921 189.32C357.801 188.513 358.241 187.413 358.241 186.02C358.241 184.627 357.801 183.527 356.921 182.72C356.078 181.913 354.758 181.51 352.961 181.51H342.456L348.231 175.625V196.415ZM396.418 210.88C393.301 210.88 390.404 210.385 387.728 209.395C385.088 208.405 382.796 207.012 380.853 205.215C378.909 203.382 377.388 201.237 376.288 198.78C375.224 196.323 374.693 193.647 374.693 190.75C374.693 187.817 375.224 185.14 376.288 182.72C377.388 180.263 378.909 178.137 380.853 176.34C382.796 174.507 385.088 173.095 387.728 172.105C390.404 171.115 393.301 170.62 396.418 170.62C399.571 170.62 402.468 171.115 405.108 172.105C407.748 173.095 410.039 174.507 411.983 176.34C413.926 178.137 415.429 180.263 416.493 182.72C417.593 185.14 418.143 187.817 418.143 190.75C418.143 193.647 417.593 196.323 416.493 198.78C415.429 201.237 413.926 203.382 411.983 205.215C410.039 207.012 407.748 208.405 405.108 209.395C402.468 210.385 399.571 210.88 396.418 210.88ZM396.418 200.375C397.628 200.375 398.746 200.155 399.773 199.715C400.836 199.275 401.753 198.652 402.523 197.845C403.329 197.002 403.953 195.993 404.393 194.82C404.833 193.61 405.053 192.253 405.053 190.75C405.053 189.247 404.833 187.908 404.393 186.735C403.953 185.525 403.329 184.517 402.523 183.71C401.753 182.867 400.836 182.225 399.773 181.785C398.746 181.345 397.628 181.125 396.418 181.125C395.208 181.125 394.071 181.345 393.008 181.785C391.981 182.225 391.064 182.867 390.258 183.71C389.488 184.517 388.883 185.525 388.443 186.735C388.003 187.908 387.783 189.247 387.783 190.75C387.783 192.253 388.003 193.61 388.443 194.82C388.883 195.993 389.488 197.002 390.258 197.845C391.064 198.652 391.981 199.275 393.008 199.715C394.071 200.155 395.208 200.375 396.418 200.375Z" fill="#393E46"/>
<path d="M226 305L229.817 316.747L242.168 316.747L232.176 324.007L235.992 335.753L226 328.493L216.008 335.753L219.824 324.007L209.832 316.747L222.183 316.747L226 305Z" fill="#FFD369"/>
<path d="M277 297L280.817 308.747L293.168 308.747L283.176 316.007L286.992 327.753L277 320.493L267.008 327.753L270.824 316.007L260.832 308.747L273.183 308.747L277 297Z" fill="#FFD369"/>
<path d="M175 297L178.817 308.747L191.168 308.747L181.176 316.007L184.992 327.753L175 320.493L165.008 327.753L168.824 316.007L158.832 308.747L171.183 308.747L175 297Z" fill="#FFD369"/>
<path d="M320 271L323.817 282.747L336.168 282.747L326.176 290.007L329.992 301.753L320 294.493L310.008 301.753L313.824 290.007L303.832 282.747L316.183 282.747L320 271Z" fill="#FFD369"/>
<path d="M132 271L135.817 282.747L148.168 282.747L138.176 290.007L141.992 301.753L132 294.493L122.008 301.753L125.824 290.007L115.832 282.747L128.183 282.747L132 271Z" fill="#FFD369"/>
<path d="M226 305L229.817 316.747L242.168 316.747L232.176 324.007L235.992 335.753L226 328.493L216.008 335.753L219.824 324.007L209.832 316.747L222.183 316.747L226 305Z" fill="#FFD369"/>
<path d="M277 297L280.817 308.747L293.168 308.747L283.176 316.007L286.992 327.753L277 320.493L267.008 327.753L270.824 316.007L260.832 308.747L273.183 308.747L277 297Z" fill="#FFD369"/>
<path d="M175 297L178.817 308.747L191.168 308.747L181.176 316.007L184.992 327.753L175 320.493L165.008 327.753L168.824 316.007L158.832 308.747L171.183 308.747L175 297Z" fill="#FFD369"/>
<path d="M320 271L323.817 282.747L336.168 282.747L326.176 290.007L329.992 301.753L320 294.493L310.008 301.753L313.824 290.007L303.832 282.747L316.183 282.747L320 271Z" fill="#FFD369"/>
<path d="M132 271L135.817 282.747L148.168 282.747L138.176 290.007L141.992 301.753L132 294.493L122.008 301.753L125.824 290.007L115.832 282.747L128.183 282.747L132 271Z" fill="#FFD369"/>
<path d="M226 75L229.817 63.2533L242.168 63.2533L232.176 55.9934L235.992 44.2467L226 51.5066L216.008 44.2467L219.824 55.9934L209.832 63.2533L222.183 63.2533L226 75Z" fill="#FFD369"/>
<path d="M277 83L280.817 71.2533L293.168 71.2533L283.176 63.9934L286.992 52.2467L277 59.5066L267.008 52.2467L270.824 63.9934L260.832 71.2533L273.183 71.2533L277 83Z" fill="#FFD369"/>
<path d="M175 83L178.817 71.2533L191.168 71.2533L181.176 63.9934L184.992 52.2467L175 59.5066L165.008 52.2467L168.824 63.9934L158.832 71.2533L171.183 71.2533L175 83Z" fill="#FFD369"/>
<path d="M320 109L323.817 97.2533L336.168 97.2533L326.176 89.9934L329.992 78.2467L320 85.5066L310.008 78.2467L313.824 89.9934L303.832 97.2533L316.183 97.2533L320 109Z" fill="#FFD369"/>
<path d="M132 109L135.817 97.2533L148.168 97.2533L138.176 89.9934L141.992 78.2467L132 85.5066L122.008 78.2467L125.824 89.9934L115.832 97.2533L128.183 97.2533L132 109Z" fill="#FFD369"/>
</svg>
