<svg width="450" height="381" viewBox="0 0 450 381" fill="none" xmlns="http://www.w3.org/2000/svg">
<circle cx="225.5" cy="190.5" r="175.5" fill="#EEEEEE" stroke="#393E46" stroke-width="30"/>
<circle cx="225.5" cy="190.5" r="105" fill="#EEEEEE" stroke="#393E46" stroke-width="5"/>
<rect x="9" y="123" width="432" height="134" fill="#EEEEEE" stroke="#393E46" stroke-width="18"/>
<path d="M44.1513 200L31.8313 161.5H45.1963L55.1513 194.005H48.4413L59.0013 161.5H70.9363L80.7813 194.005H74.3463L84.7413 161.5H97.0613L84.7413 200H70.8263L62.7963 173.38H66.5363L58.0663 200H44.1513ZM111.824 175.8H128.984V185.15H111.824V175.8ZM112.704 190.21H131.954V200H99.9436V161.5H131.239V171.29H112.704V190.21ZM136.95 200V161.5H157.52C162.837 161.5 166.76 162.453 169.29 164.36C171.82 166.23 173.085 168.632 173.085 171.565C173.085 173.508 172.535 175.25 171.435 176.79C170.372 178.293 168.814 179.485 166.76 180.365C164.707 181.245 162.177 181.685 159.17 181.685L160.27 178.715C163.277 178.715 165.862 179.137 168.025 179.98C170.225 180.823 171.912 182.052 173.085 183.665C174.295 185.242 174.9 187.148 174.9 189.385C174.9 192.722 173.507 195.325 170.72 197.195C167.97 199.065 163.937 200 158.62 200H136.95ZM149.71 190.925H157.52C158.95 190.925 160.014 190.668 160.71 190.155C161.444 189.642 161.81 188.89 161.81 187.9C161.81 186.91 161.444 186.158 160.71 185.645C160.014 185.132 158.95 184.875 157.52 184.875H148.83V176.295H155.76C157.227 176.295 158.29 176.057 158.95 175.58C159.647 175.067 159.995 174.352 159.995 173.435C159.995 172.482 159.647 171.767 158.95 171.29C158.29 170.813 157.227 170.575 155.76 170.575H149.71V190.925ZM195.979 200V161.5H214.954C219.244 161.5 223.02 162.288 226.284 163.865C229.547 165.405 232.095 167.605 233.929 170.465C235.762 173.325 236.679 176.735 236.679 180.695C236.679 184.692 235.762 188.138 233.929 191.035C232.095 193.895 229.547 196.113 226.284 197.69C223.02 199.23 219.244 200 214.954 200H195.979ZM208.959 189.88H214.404C216.237 189.88 217.832 189.532 219.189 188.835C220.582 188.138 221.664 187.112 222.434 185.755C223.204 184.362 223.589 182.675 223.589 180.695C223.589 178.752 223.204 177.102 222.434 175.745C221.664 174.388 220.582 173.362 219.189 172.665C217.832 171.968 216.237 171.62 214.404 171.62H208.959V189.88ZM253.298 175.8H270.458V185.15H253.298V175.8ZM254.178 190.21H273.428V200H241.418V161.5H272.713V171.29H254.178V190.21ZM294.914 200V161.5H313.449C317.043 161.5 320.141 162.087 322.744 163.26C325.384 164.433 327.419 166.12 328.849 168.32C330.279 170.483 330.994 173.05 330.994 176.02C330.994 178.99 330.279 181.557 328.849 183.72C327.419 185.883 325.384 187.57 322.744 188.78C320.141 189.953 317.043 190.54 313.449 190.54H302.119L307.894 184.985V200H294.914ZM307.894 186.415L302.119 180.53H312.624C314.421 180.53 315.741 180.127 316.584 179.32C317.464 178.513 317.904 177.413 317.904 176.02C317.904 174.627 317.464 173.527 316.584 172.72C315.741 171.913 314.421 171.51 312.624 171.51H302.119L307.894 165.625V186.415ZM335.251 200V161.5H353.786C357.38 161.5 360.478 162.087 363.081 163.26C365.721 164.433 367.756 166.12 369.186 168.32C370.616 170.483 371.331 173.05 371.331 176.02C371.331 178.99 370.616 181.557 369.186 183.72C367.756 185.847 365.721 187.478 363.081 188.615C360.478 189.752 357.38 190.32 353.786 190.32H342.456L348.231 184.985V200H335.251ZM358.296 200L348.836 185.975H362.586L372.156 200H358.296ZM348.231 186.415L342.456 180.53H352.961C354.758 180.53 356.078 180.127 356.921 179.32C357.801 178.513 358.241 177.413 358.241 176.02C358.241 174.627 357.801 173.527 356.921 172.72C356.078 171.913 354.758 171.51 352.961 171.51H342.456L348.231 165.625V186.415ZM396.418 200.88C393.301 200.88 390.404 200.385 387.728 199.395C385.088 198.405 382.796 197.012 380.853 195.215C378.909 193.382 377.388 191.237 376.288 188.78C375.224 186.323 374.693 183.647 374.693 180.75C374.693 177.817 375.224 175.14 376.288 172.72C377.388 170.263 378.909 168.137 380.853 166.34C382.796 164.507 385.088 163.095 387.728 162.105C390.404 161.115 393.301 160.62 396.418 160.62C399.571 160.62 402.468 161.115 405.108 162.105C407.748 163.095 410.039 164.507 411.983 166.34C413.926 168.137 415.429 170.263 416.493 172.72C417.593 175.14 418.143 177.817 418.143 180.75C418.143 183.647 417.593 186.323 416.493 188.78C415.429 191.237 413.926 193.382 411.983 195.215C410.039 197.012 407.748 198.405 405.108 199.395C402.468 200.385 399.571 200.88 396.418 200.88ZM396.418 190.375C397.628 190.375 398.746 190.155 399.773 189.715C400.836 189.275 401.753 188.652 402.523 187.845C403.329 187.002 403.953 185.993 404.393 184.82C404.833 183.61 405.053 182.253 405.053 180.75C405.053 179.247 404.833 177.908 404.393 176.735C403.953 175.525 403.329 174.517 402.523 173.71C401.753 172.867 400.836 172.225 399.773 171.785C398.746 171.345 397.628 171.125 396.418 171.125C395.208 171.125 394.071 171.345 393.008 171.785C391.981 172.225 391.064 172.867 390.258 173.71C389.488 174.517 388.883 175.525 388.443 176.735C388.003 177.908 387.783 179.247 387.783 180.75C387.783 182.253 388.003 183.61 388.443 184.82C388.883 185.993 389.488 187.002 390.258 187.845C391.064 188.652 391.981 189.275 393.008 189.715C394.071 190.155 395.208 190.375 396.418 190.375Z" fill="#393E46"/>
<path d="M41.4072 223.62V221.12H47.0672V223.62H41.4072ZM54.2002 223.62V221.12H59.8602V223.62H54.2002ZM66.9931 223.62V221.12H72.6531V223.62H66.9931ZM79.7861 223.62V221.12H85.4461V223.62H79.7861ZM92.5791 223.62V221.12H98.2391V223.62H92.5791ZM106.764 228V215.2L108.164 216.6H103.964V214H110.004V228H106.764ZM123.436 228.24C122.29 228.24 121.263 227.96 120.356 227.4C119.45 226.827 118.736 226 118.216 224.92C117.696 223.84 117.436 222.533 117.436 221C117.436 219.467 117.696 218.16 118.216 217.08C118.736 216 119.45 215.18 120.356 214.62C121.263 214.047 122.29 213.76 123.436 213.76C124.596 213.76 125.623 214.047 126.516 214.62C127.423 215.18 128.136 216 128.656 217.08C129.176 218.16 129.436 219.467 129.436 221C129.436 222.533 129.176 223.84 128.656 224.92C128.136 226 127.423 226.827 126.516 227.4C125.623 227.96 124.596 228.24 123.436 228.24ZM123.436 225.5C123.983 225.5 124.456 225.347 124.856 225.04C125.27 224.733 125.59 224.247 125.816 223.58C126.056 222.913 126.176 222.053 126.176 221C126.176 219.947 126.056 219.087 125.816 218.42C125.59 217.753 125.27 217.267 124.856 216.96C124.456 216.653 123.983 216.5 123.436 216.5C122.903 216.5 122.43 216.653 122.016 216.96C121.616 217.267 121.296 217.753 121.056 218.42C120.83 219.087 120.716 219.947 120.716 221C120.716 222.053 120.83 222.913 121.056 223.58C121.296 224.247 121.616 224.733 122.016 225.04C122.43 225.347 122.903 225.5 123.436 225.5ZM142.01 228.24C140.864 228.24 139.837 227.96 138.93 227.4C138.024 226.827 137.31 226 136.79 224.92C136.27 223.84 136.01 222.533 136.01 221C136.01 219.467 136.27 218.16 136.79 217.08C137.31 216 138.024 215.18 138.93 214.62C139.837 214.047 140.864 213.76 142.01 213.76C143.17 213.76 144.197 214.047 145.09 214.62C145.997 215.18 146.71 216 147.23 217.08C147.75 218.16 148.01 219.467 148.01 221C148.01 222.533 147.75 223.84 147.23 224.92C146.71 226 145.997 226.827 145.09 227.4C144.197 227.96 143.17 228.24 142.01 228.24ZM142.01 225.5C142.557 225.5 143.03 225.347 143.43 225.04C143.844 224.733 144.164 224.247 144.39 223.58C144.63 222.913 144.75 222.053 144.75 221C144.75 219.947 144.63 219.087 144.39 218.42C144.164 217.753 143.844 217.267 143.43 216.96C143.03 216.653 142.557 216.5 142.01 216.5C141.477 216.5 141.004 216.653 140.59 216.96C140.19 217.267 139.87 217.753 139.63 218.42C139.404 219.087 139.29 219.947 139.29 221C139.29 222.053 139.404 222.913 139.63 223.58C139.87 224.247 140.19 224.733 140.59 225.04C141.004 225.347 141.477 225.5 142.01 225.5ZM156.605 228L166.165 214H168.545L158.985 228H156.605ZM157.825 221.56C157.145 221.56 156.545 221.407 156.025 221.1C155.505 220.78 155.091 220.333 154.785 219.76C154.491 219.173 154.345 218.487 154.345 217.7C154.345 216.913 154.491 216.233 154.785 215.66C155.091 215.087 155.505 214.64 156.025 214.32C156.545 214 157.145 213.84 157.825 213.84C158.505 213.84 159.105 214 159.625 214.32C160.145 214.64 160.551 215.087 160.845 215.66C161.138 216.233 161.285 216.913 161.285 217.7C161.285 218.487 161.138 219.173 160.845 219.76C160.551 220.333 160.145 220.78 159.625 221.1C159.105 221.407 158.505 221.56 157.825 221.56ZM157.825 219.92C158.265 219.92 158.618 219.74 158.885 219.38C159.151 219.007 159.285 218.447 159.285 217.7C159.285 216.953 159.151 216.4 158.885 216.04C158.618 215.667 158.265 215.48 157.825 215.48C157.398 215.48 157.045 215.667 156.765 216.04C156.498 216.4 156.365 216.953 156.365 217.7C156.365 218.433 156.498 218.987 156.765 219.36C157.045 219.733 157.398 219.92 157.825 219.92ZM167.325 228.16C166.658 228.16 166.058 228.007 165.525 227.7C165.005 227.38 164.598 226.933 164.305 226.36C164.011 225.773 163.865 225.087 163.865 224.3C163.865 223.513 164.011 222.833 164.305 222.26C164.598 221.687 165.005 221.24 165.525 220.92C166.058 220.6 166.658 220.44 167.325 220.44C168.018 220.44 168.625 220.6 169.145 220.92C169.665 221.24 170.071 221.687 170.365 222.26C170.658 222.833 170.805 223.513 170.805 224.3C170.805 225.087 170.658 225.773 170.365 226.36C170.071 226.933 169.665 227.38 169.145 227.7C168.625 228.007 168.018 228.16 167.325 228.16ZM167.325 226.52C167.765 226.52 168.118 226.34 168.385 225.98C168.651 225.607 168.785 225.047 168.785 224.3C168.785 223.567 168.651 223.013 168.385 222.64C168.118 222.267 167.765 222.08 167.325 222.08C166.898 222.08 166.545 222.267 166.265 222.64C165.998 223 165.865 223.553 165.865 224.3C165.865 225.047 165.998 225.607 166.265 225.98C166.545 226.34 166.898 226.52 167.325 226.52ZM195.448 228.24C194.354 228.24 193.334 228.06 192.388 227.7C191.454 227.34 190.641 226.833 189.948 226.18C189.268 225.527 188.734 224.76 188.348 223.88C187.974 223 187.788 222.04 187.788 221C187.788 219.96 187.974 219 188.348 218.12C188.734 217.24 189.274 216.473 189.968 215.82C190.661 215.167 191.474 214.66 192.408 214.3C193.341 213.94 194.354 213.76 195.448 213.76C196.554 213.76 197.568 213.94 198.488 214.3C199.421 214.66 200.228 215.167 200.908 215.82C201.601 216.46 202.141 217.22 202.528 218.1C202.914 218.98 203.108 219.947 203.108 221C203.108 222.04 202.914 223.007 202.528 223.9C202.141 224.78 201.601 225.547 200.908 226.2C200.228 226.84 199.421 227.34 198.488 227.7C197.568 228.06 196.554 228.24 195.448 228.24ZM200.028 231.22C199.481 231.22 198.961 231.16 198.468 231.04C197.988 230.92 197.508 230.727 197.028 230.46C196.561 230.193 196.068 229.833 195.548 229.38C195.041 228.927 194.488 228.367 193.888 227.7L197.288 226.84C197.648 227.333 197.981 227.727 198.288 228.02C198.594 228.313 198.888 228.52 199.168 228.64C199.461 228.76 199.768 228.82 200.088 228.82C200.941 228.82 201.701 228.473 202.368 227.78L203.808 229.5C202.861 230.647 201.601 231.22 200.028 231.22ZM195.448 225.48C196.074 225.48 196.648 225.373 197.168 225.16C197.701 224.947 198.168 224.64 198.568 224.24C198.968 223.84 199.274 223.367 199.488 222.82C199.714 222.26 199.828 221.653 199.828 221C199.828 220.333 199.714 219.727 199.488 219.18C199.274 218.633 198.968 218.16 198.568 217.76C198.168 217.36 197.701 217.053 197.168 216.84C196.648 216.627 196.074 216.52 195.448 216.52C194.821 216.52 194.241 216.627 193.708 216.84C193.174 217.053 192.708 217.36 192.308 217.76C191.921 218.16 191.614 218.633 191.388 219.18C191.174 219.727 191.068 220.333 191.068 221C191.068 221.653 191.174 222.26 191.388 222.82C191.614 223.367 191.921 223.84 192.308 224.24C192.708 224.64 193.174 224.947 193.708 225.16C194.241 225.373 194.821 225.48 195.448 225.48ZM214.863 228.16C213.969 228.16 213.169 227.987 212.463 227.64C211.769 227.293 211.229 226.767 210.843 226.06C210.456 225.34 210.263 224.427 210.263 223.32V217.24H213.383V222.86C213.383 223.753 213.569 224.413 213.943 224.84C214.329 225.253 214.869 225.46 215.563 225.46C216.043 225.46 216.469 225.36 216.843 225.16C217.216 224.947 217.509 224.627 217.723 224.2C217.936 223.76 218.043 223.213 218.043 222.56V217.24H221.163V228H218.203V225.04L218.743 225.9C218.383 226.647 217.849 227.213 217.143 227.6C216.449 227.973 215.689 228.16 214.863 228.16ZM234.393 228.16C233.167 228.16 232.087 227.92 231.153 227.44C230.233 226.96 229.52 226.307 229.013 225.48C228.507 224.64 228.253 223.687 228.253 222.62C228.253 221.54 228.5 220.587 228.993 219.76C229.5 218.92 230.187 218.267 231.053 217.8C231.92 217.32 232.9 217.08 233.993 217.08C235.047 217.08 235.993 217.307 236.833 217.76C237.687 218.2 238.36 218.84 238.853 219.68C239.347 220.507 239.593 221.5 239.593 222.66C239.593 222.78 239.587 222.92 239.573 223.08C239.56 223.227 239.547 223.367 239.533 223.5H230.793V221.68H237.893L236.693 222.22C236.693 221.66 236.58 221.173 236.353 220.76C236.127 220.347 235.813 220.027 235.413 219.8C235.013 219.56 234.547 219.44 234.013 219.44C233.48 219.44 233.007 219.56 232.593 219.8C232.193 220.027 231.88 220.353 231.653 220.78C231.427 221.193 231.313 221.687 231.313 222.26V222.74C231.313 223.327 231.44 223.847 231.693 224.3C231.96 224.74 232.327 225.08 232.793 225.32C233.273 225.547 233.833 225.66 234.473 225.66C235.047 225.66 235.547 225.573 235.973 225.4C236.413 225.227 236.813 224.967 237.173 224.62L238.833 226.42C238.34 226.98 237.72 227.413 236.973 227.72C236.227 228.013 235.367 228.16 234.393 228.16ZM232.113 215.86L234.813 212.98H238.173L234.553 215.86H232.113ZM253.03 228.16C252.084 228.16 251.27 227.96 250.59 227.56C249.91 227.16 249.39 226.553 249.03 225.74C248.67 224.913 248.49 223.873 248.49 222.62C248.49 221.353 248.677 220.313 249.05 219.5C249.437 218.687 249.97 218.08 250.65 217.68C251.33 217.28 252.124 217.08 253.03 217.08C254.044 217.08 254.95 217.307 255.75 217.76C256.564 218.213 257.204 218.853 257.67 219.68C258.15 220.507 258.39 221.487 258.39 222.62C258.39 223.74 258.15 224.713 257.67 225.54C257.204 226.367 256.564 227.013 255.75 227.48C254.95 227.933 254.044 228.16 253.03 228.16ZM246.67 228V213.16H249.79V219.42L249.59 222.6L249.65 225.8V228H246.67ZM252.49 225.6C253.01 225.6 253.47 225.48 253.87 225.24C254.284 225 254.61 224.66 254.85 224.22C255.104 223.767 255.23 223.233 255.23 222.62C255.23 221.993 255.104 221.46 254.85 221.02C254.61 220.58 254.284 220.24 253.87 220C253.47 219.76 253.01 219.64 252.49 219.64C251.97 219.64 251.504 219.76 251.09 220C250.677 220.24 250.35 220.58 250.11 221.02C249.87 221.46 249.75 221.993 249.75 222.62C249.75 223.233 249.87 223.767 250.11 224.22C250.35 224.66 250.677 225 251.09 225.24C251.504 225.48 251.97 225.6 252.49 225.6ZM270.819 228.16C269.592 228.16 268.512 227.92 267.579 227.44C266.659 226.96 265.946 226.307 265.439 225.48C264.932 224.64 264.679 223.687 264.679 222.62C264.679 221.54 264.926 220.587 265.419 219.76C265.926 218.92 266.612 218.267 267.479 217.8C268.346 217.32 269.326 217.08 270.419 217.08C271.472 217.08 272.419 217.307 273.259 217.76C274.112 218.2 274.786 218.84 275.279 219.68C275.772 220.507 276.019 221.5 276.019 222.66C276.019 222.78 276.012 222.92 275.999 223.08C275.986 223.227 275.972 223.367 275.959 223.5H267.219V221.68H274.319L273.119 222.22C273.119 221.66 273.006 221.173 272.779 220.76C272.552 220.347 272.239 220.027 271.839 219.8C271.439 219.56 270.972 219.44 270.439 219.44C269.906 219.44 269.432 219.56 269.019 219.8C268.619 220.027 268.306 220.353 268.079 220.78C267.852 221.193 267.739 221.687 267.739 222.26V222.74C267.739 223.327 267.866 223.847 268.119 224.3C268.386 224.74 268.752 225.08 269.219 225.32C269.699 225.547 270.259 225.66 270.899 225.66C271.472 225.66 271.972 225.573 272.399 225.4C272.839 225.227 273.239 224.967 273.599 224.62L275.259 226.42C274.766 226.98 274.146 227.413 273.399 227.72C272.652 228.013 271.792 228.16 270.819 228.16ZM268.539 215.86L271.239 212.98H274.599L270.979 215.86H268.539ZM288.296 228.16C287.136 228.16 286.103 227.927 285.196 227.46C284.29 226.98 283.576 226.32 283.056 225.48C282.55 224.64 282.296 223.687 282.296 222.62C282.296 221.54 282.55 220.587 283.056 219.76C283.576 218.92 284.29 218.267 285.196 217.8C286.103 217.32 287.136 217.08 288.296 217.08C289.43 217.08 290.416 217.32 291.256 217.8C292.096 218.267 292.716 218.94 293.116 219.82L290.696 221.12C290.416 220.613 290.063 220.24 289.636 220C289.223 219.76 288.77 219.64 288.276 219.64C287.743 219.64 287.263 219.76 286.836 220C286.41 220.24 286.07 220.58 285.816 221.02C285.576 221.46 285.456 221.993 285.456 222.62C285.456 223.247 285.576 223.78 285.816 224.22C286.07 224.66 286.41 225 286.836 225.24C287.263 225.48 287.743 225.6 288.276 225.6C288.77 225.6 289.223 225.487 289.636 225.26C290.063 225.02 290.416 224.64 290.696 224.12L293.116 225.44C292.716 226.307 292.096 226.98 291.256 227.46C290.416 227.927 289.43 228.16 288.296 228.16ZM304.896 228.16C303.749 228.16 302.729 227.92 301.836 227.44C300.956 226.96 300.256 226.307 299.736 225.48C299.229 224.64 298.976 223.687 298.976 222.62C298.976 221.54 299.229 220.587 299.736 219.76C300.256 218.92 300.956 218.267 301.836 217.8C302.729 217.32 303.749 217.08 304.896 217.08C306.029 217.08 307.043 217.32 307.936 217.8C308.829 218.267 309.529 218.913 310.036 219.74C310.543 220.567 310.796 221.527 310.796 222.62C310.796 223.687 310.543 224.64 310.036 225.48C309.529 226.307 308.829 226.96 307.936 227.44C307.043 227.92 306.029 228.16 304.896 228.16ZM304.896 225.6C305.416 225.6 305.883 225.48 306.296 225.24C306.709 225 307.036 224.66 307.276 224.22C307.516 223.767 307.636 223.233 307.636 222.62C307.636 221.993 307.516 221.46 307.276 221.02C307.036 220.58 306.709 220.24 306.296 220C305.883 219.76 305.416 219.64 304.896 219.64C304.376 219.64 303.909 219.76 303.496 220C303.083 220.24 302.749 220.58 302.496 221.02C302.256 221.46 302.136 221.993 302.136 222.62C302.136 223.233 302.256 223.767 302.496 224.22C302.749 224.66 303.083 225 303.496 225.24C303.909 225.48 304.376 225.6 304.896 225.6ZM317.881 228V217.24H321.001V228H317.881ZM319.441 215.74C318.868 215.74 318.401 215.573 318.041 215.24C317.681 214.907 317.501 214.493 317.501 214C317.501 213.507 317.681 213.093 318.041 212.76C318.401 212.427 318.868 212.26 319.441 212.26C320.015 212.26 320.481 212.42 320.841 212.74C321.201 213.047 321.381 213.447 321.381 213.94C321.381 214.46 321.201 214.893 320.841 215.24C320.495 215.573 320.028 215.74 319.441 215.74ZM332.517 228.16C331.597 228.16 330.71 228.053 329.857 227.84C329.017 227.613 328.35 227.333 327.857 227L328.897 224.76C329.39 225.067 329.97 225.32 330.637 225.52C331.317 225.707 331.984 225.8 332.637 225.8C333.357 225.8 333.864 225.713 334.157 225.54C334.464 225.367 334.617 225.127 334.617 224.82C334.617 224.567 334.497 224.38 334.257 224.26C334.03 224.127 333.724 224.027 333.337 223.96C332.95 223.893 332.524 223.827 332.057 223.76C331.604 223.693 331.144 223.607 330.677 223.5C330.21 223.38 329.784 223.207 329.397 222.98C329.01 222.753 328.697 222.447 328.457 222.06C328.23 221.673 328.117 221.173 328.117 220.56C328.117 219.88 328.31 219.28 328.697 218.76C329.097 218.24 329.67 217.833 330.417 217.54C331.164 217.233 332.057 217.08 333.097 217.08C333.83 217.08 334.577 217.16 335.337 217.32C336.097 217.48 336.73 217.713 337.237 218.02L336.197 220.24C335.677 219.933 335.15 219.727 334.617 219.62C334.097 219.5 333.59 219.44 333.097 219.44C332.404 219.44 331.897 219.533 331.577 219.72C331.257 219.907 331.097 220.147 331.097 220.44C331.097 220.707 331.21 220.907 331.437 221.04C331.677 221.173 331.99 221.28 332.377 221.36C332.764 221.44 333.184 221.513 333.637 221.58C334.104 221.633 334.57 221.72 335.037 221.84C335.504 221.96 335.924 222.133 336.297 222.36C336.684 222.573 336.997 222.873 337.237 223.26C337.477 223.633 337.597 224.127 337.597 224.74C337.597 225.407 337.397 226 336.997 226.52C336.597 227.027 336.017 227.427 335.257 227.72C334.51 228.013 333.597 228.16 332.517 228.16ZM354.786 223.62V221.12H360.446V223.62H354.786ZM367.579 223.62V221.12H373.239V223.62H367.579ZM380.372 223.62V221.12H386.032V223.62H380.372ZM393.165 223.62V221.12H398.825V223.62H393.165ZM405.958 223.62V221.12H411.618V223.62H405.958Z" fill="#393E46"/>
<path d="M226 305L229.817 316.747L242.168 316.747L232.176 324.007L235.992 335.753L226 328.493L216.008 335.753L219.824 324.007L209.832 316.747L222.183 316.747L226 305Z" fill="#FFD369"/>
<path d="M277 297L280.817 308.747L293.168 308.747L283.176 316.007L286.992 327.753L277 320.493L267.008 327.753L270.824 316.007L260.832 308.747L273.183 308.747L277 297Z" fill="#FFD369"/>
<path d="M175 297L178.817 308.747L191.168 308.747L181.176 316.007L184.992 327.753L175 320.493L165.008 327.753L168.824 316.007L158.832 308.747L171.183 308.747L175 297Z" fill="#FFD369"/>
<path d="M320 271L323.817 282.747L336.168 282.747L326.176 290.007L329.992 301.753L320 294.493L310.008 301.753L313.824 290.007L303.832 282.747L316.183 282.747L320 271Z" fill="#FFD369"/>
<path d="M132 271L135.817 282.747L148.168 282.747L138.176 290.007L141.992 301.753L132 294.493L122.008 301.753L125.824 290.007L115.832 282.747L128.183 282.747L132 271Z" fill="#FFD369"/>
<path d="M226 305L229.817 316.747L242.168 316.747L232.176 324.007L235.992 335.753L226 328.493L216.008 335.753L219.824 324.007L209.832 316.747L222.183 316.747L226 305Z" fill="#FFD369"/>
<path d="M277 297L280.817 308.747L293.168 308.747L283.176 316.007L286.992 327.753L277 320.493L267.008 327.753L270.824 316.007L260.832 308.747L273.183 308.747L277 297Z" fill="#FFD369"/>
<path d="M175 297L178.817 308.747L191.168 308.747L181.176 316.007L184.992 327.753L175 320.493L165.008 327.753L168.824 316.007L158.832 308.747L171.183 308.747L175 297Z" fill="#FFD369"/>
<path d="M320 271L323.817 282.747L336.168 282.747L326.176 290.007L329.992 301.753L320 294.493L310.008 301.753L313.824 290.007L303.832 282.747L316.183 282.747L320 271Z" fill="#FFD369"/>
<path d="M132 271L135.817 282.747L148.168 282.747L138.176 290.007L141.992 301.753L132 294.493L122.008 301.753L125.824 290.007L115.832 282.747L128.183 282.747L132 271Z" fill="#FFD369"/>
<path d="M226 75L229.817 63.2533L242.168 63.2533L232.176 55.9934L235.992 44.2467L226 51.5066L216.008 44.2467L219.824 55.9934L209.832 63.2533L222.183 63.2533L226 75Z" fill="#FFD369"/>
<path d="M277 83L280.817 71.2533L293.168 71.2533L283.176 63.9934L286.992 52.2467L277 59.5066L267.008 52.2467L270.824 63.9934L260.832 71.2533L273.183 71.2533L277 83Z" fill="#FFD369"/>
<path d="M175 83L178.817 71.2533L191.168 71.2533L181.176 63.9934L184.992 52.2467L175 59.5066L165.008 52.2467L168.824 63.9934L158.832 71.2533L171.183 71.2533L175 83Z" fill="#FFD369"/>
<path d="M320 109L323.817 97.2533L336.168 97.2533L326.176 89.9934L329.992 78.2467L320 85.5066L310.008 78.2467L313.824 89.9934L303.832 97.2533L316.183 97.2533L320 109Z" fill="#FFD369"/>
<path d="M132 109L135.817 97.2533L148.168 97.2533L138.176 89.9934L141.992 78.2467L132 85.5066L122.008 78.2467L125.824 89.9934L115.832 97.2533L128.183 97.2533L132 109Z" fill="#FFD369"/>
</svg>
