<svg width="582" height="555" viewBox="0 0 582 555" fill="none" xmlns="http://www.w3.org/2000/svg">
<circle cx="291.433" cy="277.25" r="175.5" transform="rotate(-30 291.433 277.25)" fill="#EEEEEE" stroke="#393E46" stroke-width="30"/>
<circle cx="291.433" cy="277.25" r="105" transform="rotate(-30 291.433 277.25)" fill="#EEEEEE" stroke="#393E46" stroke-width="5"/>
<rect x="70.1888" y="327.043" width="432" height="134" transform="rotate(-30 70.1888 327.043)" fill="#EEEEEE" stroke="#393E46" stroke-width="18"/>
<path d="M139.131 376.152L109.211 348.97L120.786 342.287L145.659 365.46L139.848 368.815L132.741 335.385L143.077 329.417L167.856 352.645L162.283 355.862L155.032 322.515L165.702 316.355L174.283 355.857L162.232 362.814L141.968 343.776L145.207 341.906L151.181 369.194L139.131 376.152ZM185.636 321.358L200.497 312.778L205.172 320.875L190.311 329.455L185.636 321.358ZM193.604 333.397L210.275 323.772L215.17 332.25L187.448 348.255L168.198 314.914L195.3 299.266L200.195 307.744L184.144 317.012L193.604 333.397ZM219.497 329.752L200.247 296.41L218.061 286.125C222.665 283.467 226.54 282.331 229.684 282.717C232.81 283.071 235.107 284.519 236.573 287.059C237.545 288.742 237.939 290.525 237.757 292.409C237.588 294.243 236.834 296.054 235.496 297.843C234.157 299.631 232.186 301.277 229.583 302.781L229.05 299.659C231.654 298.155 234.104 297.228 236.399 296.877C238.726 296.507 240.8 296.728 242.623 297.538C244.46 298.298 245.937 299.647 247.055 301.584C248.723 304.474 248.818 307.425 247.34 310.438C245.894 313.432 242.868 316.259 238.264 318.917L219.497 329.752ZM226.01 315.513L232.774 311.608C234.012 310.893 234.805 310.139 235.151 309.346C235.53 308.535 235.471 307.701 234.976 306.843C234.481 305.986 233.788 305.518 232.896 305.44C232.036 305.344 230.987 305.653 229.749 306.368L222.223 310.713L217.933 303.283L223.934 299.818C225.205 299.085 226.006 298.347 226.34 297.604C226.686 296.811 226.63 296.017 226.172 295.224C225.695 294.398 225.036 293.953 224.195 293.888C223.385 293.806 222.345 294.131 221.074 294.864L215.835 297.889L226.01 315.513ZM270.617 300.238L251.367 266.896L267.8 257.408C271.515 255.263 275.18 254.058 278.794 253.792C282.391 253.494 285.697 254.125 288.715 255.685C291.733 257.245 294.232 259.74 296.212 263.169C298.21 266.631 299.14 270.074 299 273.499C298.842 276.892 297.745 280.088 295.707 283.085C293.651 286.05 290.765 288.605 287.05 290.75L270.617 300.238ZM276.798 284.984L281.514 282.261C283.101 281.345 284.308 280.245 285.135 278.964C285.993 277.664 286.417 276.234 286.405 274.674C286.375 273.082 285.865 271.429 284.875 269.714C283.904 268.031 282.745 266.795 281.4 266.005C280.055 265.215 278.605 264.867 277.05 264.96C275.527 265.035 273.971 265.531 272.384 266.448L267.668 269.17L276.798 284.984ZM308.157 250.62L323.018 242.04L327.693 250.138L312.832 258.718L308.157 250.62ZM316.124 262.66L332.795 253.035L337.69 261.513L309.969 277.518L290.719 244.176L317.821 228.529L322.716 237.007L306.664 246.275L316.124 262.66ZM356.298 250.77L337.048 217.428L353.099 208.161C356.211 206.364 359.188 205.323 362.029 205.037C364.902 204.733 367.508 205.177 369.846 206.367C372.166 207.525 374.069 209.391 375.554 211.963C377.039 214.535 377.703 217.115 377.546 219.704C377.39 222.292 376.47 224.77 374.789 227.138C373.121 229.456 370.731 231.513 367.619 233.31L357.807 238.975L360.031 231.277L367.539 244.28L356.298 250.77ZM360.746 232.515L352.802 230.306L361.9 225.054C363.456 224.155 364.397 223.146 364.724 222.026C365.083 220.887 364.914 219.715 364.218 218.508C363.521 217.301 362.59 216.569 361.424 216.31C360.291 216.033 358.946 216.344 357.39 217.242L348.292 222.495L350.351 214.511L360.746 232.515ZM391.23 230.602L371.98 197.26L388.032 187.992C391.144 186.196 394.121 185.154 396.962 184.869C399.835 184.565 402.441 185.008 404.779 186.198C407.099 187.357 409.002 189.222 410.487 191.794C411.972 194.366 412.636 196.947 412.479 199.535C412.304 202.092 411.357 204.523 409.639 206.827C407.953 209.113 405.554 211.154 402.442 212.951L392.63 218.616L394.964 211.108L402.471 224.112L391.23 230.602ZM411.188 219.079L395.983 211.663L407.891 204.788L423.191 212.149L411.188 219.079ZM395.679 212.347L387.735 210.138L396.833 204.885C398.389 203.987 399.33 202.978 399.657 201.857C400.016 200.719 399.847 199.546 399.15 198.339C398.454 197.133 397.523 196.4 396.357 196.142C395.224 195.865 393.879 196.175 392.323 197.074L383.225 202.326L385.284 194.342L395.679 212.347ZM444.642 200.781C441.943 202.339 439.187 203.359 436.374 203.84C433.593 204.302 430.911 204.241 428.33 203.657C425.73 203.041 423.34 201.944 421.159 200.367C419.01 198.771 417.211 196.719 415.763 194.21C414.296 191.67 413.418 189.086 413.129 186.458C412.853 183.781 413.108 181.178 413.892 178.651C414.659 176.091 415.938 173.723 417.729 171.545C419.552 169.35 421.813 167.473 424.512 165.914C427.243 164.338 429.999 163.318 432.78 162.855C435.562 162.393 438.252 162.469 440.852 163.086C443.433 163.67 445.798 164.76 447.948 166.356C450.11 167.902 451.925 169.945 453.392 172.485C454.84 174.994 455.702 177.587 455.978 180.264C456.285 182.923 456.056 185.533 455.289 188.092C454.505 190.62 453.217 192.972 451.425 195.15C449.634 197.327 447.373 199.204 444.642 200.781ZM439.39 191.683C440.438 191.078 441.296 190.328 441.965 189.434C442.666 188.521 443.148 187.523 443.412 186.439C443.689 185.306 443.724 184.121 443.519 182.885C443.295 181.617 442.807 180.332 442.055 179.03C441.304 177.728 440.444 176.679 439.476 175.883C438.49 175.055 437.446 174.493 436.344 174.198C435.256 173.853 434.141 173.755 433 173.906C431.891 174.038 430.813 174.407 429.765 175.012C428.717 175.617 427.842 176.376 427.142 177.289C426.472 178.183 425.999 179.197 425.722 180.331C425.459 181.414 425.439 182.59 425.663 183.858C425.869 185.094 426.347 186.363 427.099 187.665C427.851 188.967 428.72 190.032 429.706 190.86C430.673 191.656 431.701 192.227 432.79 192.572C433.892 192.867 434.997 192.949 436.107 192.816C437.247 192.666 438.342 192.288 439.39 191.683Z" fill="#393E46"/>
<path d="M146.66 399.079L145.41 396.914L150.312 394.084L151.562 396.249L146.66 399.079ZM157.739 392.682L156.489 390.517L161.391 387.687L162.641 389.852L157.739 392.682ZM168.818 386.286L167.568 384.121L172.47 381.291L173.72 383.456L168.818 386.286ZM179.897 379.889L178.647 377.724L183.549 374.894L184.799 377.059L179.897 379.889ZM190.976 373.493L189.726 371.328L194.628 368.498L195.878 370.663L190.976 373.493ZM218.464 362.865C217.401 363.479 216.346 363.811 215.298 363.862C214.261 363.906 213.317 363.697 212.464 363.234C211.606 362.76 210.91 362.061 210.376 361.137C209.836 360.202 209.573 359.253 209.587 358.291C209.606 357.31 209.874 356.401 210.391 355.563C210.902 354.714 211.63 354.016 212.577 353.47C213.49 352.943 214.423 352.666 215.377 352.639C216.336 352.593 217.239 352.81 218.086 353.291C218.927 353.761 219.637 354.497 220.217 355.502C220.277 355.606 220.341 355.731 220.41 355.876C220.471 356.009 220.53 356.137 220.585 356.26L213.016 360.63L212.106 359.053L218.255 355.503L217.486 356.571C217.206 356.086 216.864 355.721 216.461 355.477C216.058 355.232 215.627 355.112 215.167 355.115C214.701 355.107 214.236 355.237 213.775 355.503C213.313 355.77 212.963 356.111 212.725 356.525C212.492 356.922 212.384 357.361 212.401 357.844C212.411 358.315 212.56 358.799 212.846 359.296L213.086 359.711C213.38 360.219 213.749 360.606 214.195 360.872C214.646 361.12 215.134 361.231 215.658 361.206C216.187 361.162 216.729 360.98 217.283 360.66C217.78 360.373 218.169 360.048 218.452 359.685C218.746 359.315 218.963 358.89 219.101 358.409L221.439 359.138C221.292 359.87 220.971 360.555 220.478 361.194C219.978 361.822 219.307 362.379 218.464 362.865ZM227.585 357.415L228.599 349.531L229.407 351.051L222.326 348.026L225.357 346.276L229.896 348.298L228.773 348.992L229.358 343.966L232.233 342.306L231.265 349.909L230.425 348.454L237.752 351.545L234.686 353.315L229.896 351.138L231.112 350.644L230.529 355.715L227.585 357.415ZM247.689 345.992C246.685 346.572 245.673 346.886 244.655 346.936C243.629 346.973 242.682 346.758 241.811 346.291C240.952 345.817 240.256 345.118 239.723 344.194C239.183 343.259 238.926 342.306 238.951 341.337C238.982 340.35 239.273 339.427 239.825 338.57C240.37 337.701 241.145 336.976 242.149 336.396C243.131 335.83 244.105 335.544 245.073 335.54C246.033 335.524 246.907 335.797 247.693 336.359L246.248 338.695C245.752 338.396 245.259 338.25 244.77 338.255C244.292 338.254 243.839 338.377 243.412 338.623C242.95 338.89 242.594 339.234 242.345 339.655C242.095 340.076 241.971 340.541 241.971 341.048C241.984 341.549 242.146 342.071 242.46 342.614C242.773 343.157 243.144 343.559 243.571 343.82C244.011 344.074 244.475 344.199 244.965 344.193C245.454 344.188 245.93 344.051 246.392 343.785C246.819 343.538 247.155 343.213 247.4 342.81C247.649 342.389 247.765 341.883 247.748 341.293L250.503 341.226C250.59 342.177 250.39 343.07 249.903 343.906C249.409 344.73 248.671 345.425 247.689 345.992ZM262.255 337.582C261.193 338.195 260.138 338.527 259.09 338.578C258.053 338.623 257.108 338.414 256.256 337.951C255.397 337.477 254.701 336.778 254.168 335.854C253.628 334.919 253.365 333.97 253.379 333.007C253.398 332.027 253.666 331.117 254.183 330.28C254.694 329.431 255.422 328.733 256.369 328.186C257.281 327.66 258.214 327.383 259.169 327.355C260.128 327.31 261.031 327.527 261.878 328.008C262.719 328.477 263.429 329.214 264.009 330.219C264.069 330.323 264.133 330.447 264.202 330.593C264.263 330.726 264.322 330.854 264.377 330.976L256.808 335.346L255.898 333.77L262.047 330.22L261.277 331.288C260.997 330.803 260.656 330.438 260.253 330.193C259.85 329.949 259.419 329.828 258.959 329.832C258.492 329.824 258.028 329.954 257.566 330.22C257.105 330.487 256.755 330.827 256.517 331.242C256.284 331.638 256.176 332.078 256.193 332.561C256.203 333.032 256.351 333.516 256.638 334.012L256.878 334.428C257.171 334.936 257.541 335.323 257.987 335.589C258.438 335.837 258.926 335.948 259.45 335.922C259.979 335.879 260.521 335.697 261.075 335.377C261.571 335.09 261.961 334.765 262.244 334.402C262.538 334.032 262.755 333.606 262.893 333.126L265.231 333.855C265.083 334.587 264.763 335.272 264.27 335.911C263.77 336.538 263.098 337.095 262.255 337.582ZM272.808 331.305L265.388 318.453L268.09 316.893L275.51 329.745L272.808 331.305ZM282.348 325.797L274.928 312.945L277.63 311.385L285.05 324.237L282.348 325.797ZM296.592 317.758C295.53 318.371 294.474 318.703 293.426 318.754C292.389 318.799 291.445 318.589 290.593 318.127C289.734 317.653 289.038 316.954 288.505 316.03C287.965 315.095 287.702 314.146 287.716 313.183C287.734 312.202 288.002 311.293 288.52 310.456C289.03 309.607 289.759 308.909 290.706 308.362C291.618 307.836 292.551 307.559 293.505 307.531C294.464 307.485 295.367 307.703 296.215 308.184C297.055 308.653 297.765 309.39 298.345 310.395C298.405 310.499 298.47 310.623 298.538 310.768C298.6 310.902 298.658 311.03 298.713 311.152L291.144 315.522L290.234 313.946L296.383 310.396L295.614 311.464C295.334 310.979 294.992 310.614 294.589 310.369C294.186 310.125 293.755 310.004 293.295 310.008C292.829 310 292.365 310.129 291.903 310.396C291.441 310.663 291.091 311.003 290.853 311.418C290.62 311.814 290.512 312.254 290.529 312.736C290.54 313.208 290.688 313.692 290.975 314.188L291.215 314.604C291.508 315.112 291.878 315.499 292.324 315.765C292.775 316.013 293.262 316.124 293.786 316.098C294.315 316.055 294.857 315.873 295.411 315.553C295.908 315.266 296.298 314.941 296.58 314.578C296.875 314.207 297.091 313.782 297.23 313.302L299.567 314.031C299.42 314.763 299.1 315.448 298.606 316.087C298.106 316.714 297.435 317.271 296.592 317.758ZM307.348 298.754C308.087 298.327 308.832 298.097 309.583 298.064C310.338 298.013 311.06 298.196 311.748 298.615C312.43 299.022 313.044 299.699 313.591 300.646L316.671 305.981L313.969 307.541L311.129 302.622C310.695 301.871 310.208 301.413 309.666 301.249C309.136 301.078 308.571 301.165 307.971 301.512C307.544 301.759 307.21 302.074 306.97 302.459C306.735 302.826 306.626 303.25 306.644 303.733C306.672 304.209 306.853 304.736 307.186 305.313L309.846 309.921L307.144 311.481L301.764 302.162L304.345 300.672L305.835 303.253L304.9 302.754C304.875 301.937 305.078 301.181 305.508 300.486C305.938 299.791 306.551 299.214 307.348 298.754ZM328.101 299.566C327.096 300.146 326.085 300.461 325.066 300.51C324.041 300.547 323.093 300.333 322.223 299.865C321.364 299.391 320.668 298.692 320.135 297.768C319.595 296.833 319.338 295.881 319.363 294.911C319.393 293.924 319.684 293.002 320.236 292.144C320.782 291.275 321.556 290.55 322.561 289.97C323.543 289.404 324.517 289.118 325.484 289.114C326.445 289.098 327.319 289.371 328.105 289.933L326.659 292.269C326.164 291.97 325.671 291.824 325.181 291.829C324.704 291.828 324.251 291.951 323.824 292.198C323.362 292.464 323.006 292.808 322.757 293.229C322.507 293.65 322.383 294.115 322.383 294.623C322.395 295.124 322.558 295.646 322.872 296.188C323.185 296.731 323.555 297.133 323.983 297.394C324.423 297.648 324.887 297.773 325.377 297.767C325.866 297.762 326.342 297.626 326.804 297.359C327.231 297.112 327.567 296.788 327.811 296.385C328.061 295.963 328.177 295.458 328.159 294.867L330.915 294.8C331.002 295.751 330.802 296.644 330.314 297.48C329.82 298.304 329.083 298.999 328.101 299.566ZM342.667 291.156C341.605 291.77 340.55 292.102 339.501 292.153C338.465 292.197 337.52 291.988 336.668 291.525C335.809 291.051 335.113 290.352 334.58 289.428C334.04 288.493 333.777 287.544 333.791 286.582C333.81 285.601 334.078 284.692 334.595 283.854C335.105 283.005 335.834 282.307 336.781 281.761C337.693 281.234 338.626 280.957 339.58 280.93C340.539 280.884 341.443 281.102 342.29 281.582C343.13 282.052 343.841 282.788 344.421 283.793C344.481 283.897 344.545 284.022 344.613 284.167C344.675 284.3 344.734 284.428 344.789 284.551L337.22 288.921L336.31 287.344L342.458 283.794L341.689 284.862C341.409 284.377 341.068 284.012 340.665 283.768C340.262 283.523 339.83 283.403 339.371 283.406C338.904 283.398 338.44 283.528 337.978 283.794C337.516 284.061 337.166 284.402 336.928 284.816C336.695 285.213 336.587 285.652 336.604 286.135C336.615 286.606 336.763 287.09 337.05 287.587L337.29 288.002C337.583 288.51 337.953 288.897 338.399 289.163C338.85 289.411 339.338 289.522 339.862 289.497C340.391 289.453 340.932 289.271 341.487 288.951C341.983 288.664 342.373 288.339 342.656 287.976C342.95 287.606 343.166 287.181 343.305 286.7L345.642 287.429C345.495 288.161 345.175 288.846 344.682 289.485C344.182 290.113 343.51 290.67 342.667 291.156ZM364.585 278.317L355.845 270.939L358.391 269.469L365.81 275.878L364.598 276.578L362.877 266.879L365.164 265.559L372.617 271.948L371.404 272.648L369.65 262.969L372.04 261.589L374.042 272.857L371.427 274.367L364.98 268.921L365.777 268.461L367.184 276.817L364.585 278.317ZM387.457 265.297C386.395 265.91 385.339 266.242 384.291 266.293C383.254 266.338 382.31 266.128 381.458 265.666C380.599 265.192 379.903 264.493 379.37 263.569C378.83 262.634 378.567 261.685 378.581 260.722C378.599 259.741 378.867 258.832 379.385 257.995C379.895 257.146 380.624 256.448 381.571 255.901C382.483 255.375 383.416 255.098 384.37 255.07C385.329 255.025 386.232 255.242 387.08 255.723C387.92 256.192 388.63 256.929 389.21 257.934C389.27 258.038 389.335 258.162 389.403 258.307C389.465 258.441 389.523 258.569 389.578 258.691L382.009 263.061L381.099 261.485L387.248 257.935L386.479 259.003C386.199 258.518 385.857 258.153 385.454 257.908C385.051 257.664 384.62 257.543 384.16 257.547C383.694 257.539 383.23 257.668 382.768 257.935C382.306 258.202 381.956 258.542 381.718 258.957C381.485 259.353 381.377 259.793 381.394 260.276C381.405 260.747 381.553 261.231 381.84 261.727L382.08 262.143C382.373 262.651 382.743 263.038 383.189 263.304C383.64 263.552 384.127 263.663 384.651 263.637C385.18 263.594 385.722 263.412 386.276 263.092C386.773 262.805 387.163 262.48 387.445 262.117C387.74 261.746 387.956 261.321 388.095 260.841L390.432 261.57C390.285 262.302 389.965 262.987 389.471 263.626C388.971 264.253 388.3 264.81 387.457 265.297ZM403.597 255.978C402.777 256.452 401.973 256.685 401.184 256.679C400.395 256.672 399.642 256.407 398.923 255.882C398.198 255.347 397.522 254.536 396.896 253.45C396.262 252.353 395.904 251.359 395.821 250.468C395.749 249.571 395.907 248.779 396.296 248.092C396.685 247.406 397.272 246.836 398.057 246.383C398.935 245.876 399.833 245.619 400.753 245.612C401.684 245.598 402.558 245.832 403.376 246.314C404.205 246.79 404.903 247.519 405.469 248.5C406.029 249.47 406.308 250.433 406.306 251.389C406.315 252.338 406.084 253.219 405.613 254.029C405.147 254.822 404.475 255.472 403.597 255.978ZM398.009 259.02L390.589 246.168L393.291 244.608L396.421 250.029L397.838 252.883L399.49 255.624L400.59 257.53L398.009 259.02ZM401.85 254.031C402.3 253.771 402.638 253.437 402.865 253.029C403.103 252.615 403.216 252.157 403.203 251.656C403.196 251.137 403.039 250.612 402.733 250.08C402.419 249.538 402.043 249.139 401.603 248.885C401.176 248.624 400.723 248.493 400.245 248.491C399.778 248.484 399.32 248.61 398.87 248.87C398.419 249.13 398.075 249.467 397.837 249.881C397.599 250.296 397.486 250.754 397.499 251.255C397.511 251.756 397.673 252.278 397.987 252.82C398.293 253.352 398.664 253.753 399.099 254.026C399.526 254.287 399.979 254.418 400.457 254.419C400.935 254.421 401.399 254.291 401.85 254.031ZM420.997 240.69L419.747 238.525L424.649 235.695L425.899 237.86L420.997 240.69ZM432.076 234.294L430.826 232.129L435.728 229.299L436.978 231.464L432.076 234.294ZM443.155 227.897L441.905 225.732L446.807 222.902L448.057 225.067L443.155 227.897ZM454.234 221.501L452.984 219.336L457.886 216.506L459.136 218.671L454.234 221.501ZM465.313 215.104L464.063 212.939L468.965 210.109L470.215 212.274L465.313 215.104Z" fill="#393E46"/>
<path d="M349.116 376.16L358.295 384.425L368.991 378.249L363.968 389.532L373.146 397.797L360.863 396.506L355.839 407.789L353.271 395.708L340.987 394.417L351.684 388.241L349.116 376.16Z" fill="#FFD369"/>
<path d="M389.283 343.732L398.462 351.996L409.159 345.821L404.135 357.104L413.314 365.369L401.03 364.078L396.006 375.361L393.439 363.28L381.155 361.989L391.851 355.813L389.283 343.732Z" fill="#FFD369"/>
<path d="M300.949 394.732L310.128 402.996L320.824 396.821L315.801 408.104L324.979 416.369L312.696 415.078L307.672 426.361L305.104 414.28L292.82 412.989L303.517 406.813L300.949 394.732Z" fill="#FFD369"/>
<path d="M413.523 299.715L422.701 307.98L433.398 301.804L428.374 313.087L437.553 321.352L425.269 320.061L420.246 331.344L417.678 319.263L405.394 317.972L416.091 311.796L413.523 299.715Z" fill="#FFD369"/>
<path d="M250.71 393.715L259.888 401.98L270.585 395.804L265.561 407.087L274.74 415.352L262.456 414.061L257.433 425.344L254.865 413.263L242.581 411.972L253.278 405.796L250.71 393.715Z" fill="#FFD369"/>
<path d="M349.116 376.16L358.295 384.425L368.991 378.249L363.968 389.532L373.146 397.797L360.863 396.506L355.839 407.789L353.271 395.708L340.987 394.417L351.684 388.241L349.116 376.16Z" fill="#FFD369"/>
<path d="M389.283 343.732L398.462 351.996L409.159 345.821L404.135 357.104L413.314 365.369L401.03 364.078L396.006 375.361L393.439 363.28L381.155 361.989L391.851 355.813L389.283 343.732Z" fill="#FFD369"/>
<path d="M300.949 394.732L310.128 402.996L320.824 396.821L315.801 408.104L324.979 416.369L312.696 415.078L307.672 426.361L305.104 414.28L292.82 412.989L303.517 406.813L300.949 394.732Z" fill="#FFD369"/>
<path d="M413.523 299.715L422.701 307.98L433.398 301.804L428.374 313.087L437.553 321.352L425.269 320.061L420.246 331.344L417.678 319.263L405.394 317.972L416.091 311.796L413.523 299.715Z" fill="#FFD369"/>
<path d="M250.71 393.715L259.888 401.98L270.585 395.804L265.561 407.087L274.74 415.352L262.456 414.061L257.433 425.344L254.865 413.263L242.581 411.972L253.278 405.796L250.71 393.715Z" fill="#FFD369"/>
<path d="M234.116 176.974L231.548 164.893L242.244 158.717L229.961 157.426L227.393 145.345L222.369 156.628L210.086 155.337L219.264 163.602L214.241 174.885L224.937 168.71L234.116 176.974Z" fill="#FFD369"/>
<path d="M282.283 158.402L279.716 146.321L290.412 140.145L278.128 138.854L275.56 126.773L270.537 138.056L258.253 136.765L267.432 145.03L262.408 156.313L273.105 150.138L282.283 158.402Z" fill="#FFD369"/>
<path d="M193.949 209.402L191.381 197.321L202.078 191.145L189.794 189.854L187.226 177.773L182.202 189.056L169.919 187.765L179.097 196.03L174.074 207.313L184.77 201.138L193.949 209.402Z" fill="#FFD369"/>
<path d="M332.523 159.419L329.955 147.338L340.651 141.162L328.368 139.871L325.8 127.79L320.776 139.073L308.492 137.782L317.671 146.047L312.648 157.33L323.344 151.154L332.523 159.419Z" fill="#FFD369"/>
<path d="M169.71 253.419L167.142 241.338L177.838 235.162L165.555 233.871L162.987 221.79L157.963 233.073L145.679 231.782L154.858 240.047L149.835 251.33L160.531 245.154L169.71 253.419Z" fill="#FFD369"/>
</svg>
