<svg width="582" height="555" viewBox="0 0 582 555" fill="none" xmlns="http://www.w3.org/2000/svg">
<circle cx="291.433" cy="277.25" r="175.5" transform="rotate(-30 291.433 277.25)" fill="#EEEEEE" stroke="#393E46" stroke-width="30"/>
<circle cx="291.433" cy="277.25" r="105" transform="rotate(-30 291.433 277.25)" fill="#EEEEEE" stroke="#393E46" stroke-width="5"/>
<rect x="70.1888" y="327.043" width="432" height="134" transform="rotate(-30 70.1888 327.043)" fill="#EEEEEE" stroke="#393E46" stroke-width="18"/>
<path d="M144.131 384.812L114.211 357.63L125.786 350.947L150.659 374.12L144.848 377.475L137.741 344.045L148.077 338.077L172.856 361.305L167.283 364.522L160.032 331.175L170.702 325.015L179.283 364.517L167.232 371.474L146.968 352.436L150.207 350.566L156.181 377.854L144.131 384.812ZM190.636 330.018L205.497 321.438L210.172 329.535L195.311 338.115L190.636 330.018ZM198.604 342.057L215.275 332.432L220.17 340.911L192.448 356.916L173.198 323.574L200.3 307.926L205.195 316.405L189.144 325.672L198.604 342.057ZM224.497 338.412L205.247 305.07L223.061 294.785C227.665 292.127 231.54 290.991 234.684 291.377C237.81 291.732 240.107 293.179 241.573 295.719C242.545 297.402 242.939 299.186 242.757 301.069C242.588 302.903 241.834 304.714 240.496 306.503C239.157 308.292 237.186 309.938 234.583 311.441L234.05 308.319C236.654 306.816 239.104 305.888 241.399 305.537C243.726 305.167 245.8 305.388 247.623 306.198C249.46 306.959 250.937 308.307 252.055 310.244C253.723 313.134 253.818 316.085 252.34 319.098C250.894 322.092 247.868 324.919 243.264 327.577L224.497 338.412ZM231.01 324.173L237.774 320.268C239.012 319.553 239.805 318.799 240.151 318.006C240.53 317.195 240.471 316.361 239.976 315.503C239.481 314.646 238.788 314.178 237.896 314.1C237.036 314.004 235.987 314.314 234.749 315.029L227.223 319.374L222.933 311.943L228.934 308.478C230.205 307.745 231.006 307.007 231.34 306.264C231.686 305.471 231.63 304.678 231.172 303.884C230.695 303.058 230.036 302.613 229.195 302.549C228.385 302.466 227.345 302.791 226.074 303.524L220.835 306.549L231.01 324.173ZM275.617 308.898L256.367 275.556L272.8 266.069C276.515 263.924 280.18 262.718 283.794 262.452C287.391 262.154 290.697 262.785 293.715 264.345C296.733 265.905 299.232 268.4 301.212 271.829C303.21 275.291 304.14 278.734 304 282.159C303.842 285.553 302.745 288.748 300.707 291.745C298.651 294.71 295.765 297.266 292.05 299.411L275.617 308.898ZM281.798 293.644L286.514 290.921C288.101 290.005 289.308 288.906 290.135 287.624C290.993 286.324 291.417 284.894 291.405 283.334C291.375 281.742 290.865 280.089 289.875 278.374C288.904 276.691 287.745 275.455 286.4 274.665C285.055 273.875 283.605 273.527 282.05 273.62C280.527 273.695 278.971 274.191 277.384 275.108L272.668 277.83L281.798 293.644ZM313.157 259.28L328.018 250.7L332.693 258.798L317.832 267.378L313.157 259.28ZM321.124 271.32L337.795 261.695L342.69 270.173L314.969 286.178L295.719 252.836L322.821 237.189L327.716 245.667L311.664 254.935L321.124 271.32ZM361.298 259.43L342.048 226.088L358.099 216.821C361.211 215.024 364.188 213.983 367.029 213.697C369.902 213.394 372.508 213.837 374.846 215.027C377.166 216.186 379.069 218.051 380.554 220.623C382.039 223.195 382.703 225.775 382.546 228.364C382.39 230.952 381.47 233.431 379.789 235.798C378.121 238.116 375.731 240.173 372.619 241.97L362.807 247.635L365.031 239.937L372.539 252.94L361.298 259.43ZM365.746 241.175L357.802 238.966L366.9 233.714C368.456 232.815 369.397 231.806 369.724 230.686C370.083 229.547 369.914 228.375 369.218 227.168C368.521 225.961 367.59 225.229 366.424 224.97C365.291 224.693 363.946 225.004 362.39 225.902L353.292 231.155L355.351 223.171L365.746 241.175ZM396.23 239.262L376.98 205.92L393.032 196.652C396.144 194.856 399.121 193.815 401.962 193.529C404.835 193.225 407.441 193.668 409.779 194.859C412.099 196.017 414.002 197.882 415.487 200.455C416.972 203.027 417.636 205.607 417.479 208.195C417.304 210.752 416.357 213.183 414.639 215.487C412.953 217.773 410.554 219.815 407.442 221.611L397.63 227.276L399.964 219.768L407.471 232.772L396.23 239.262ZM416.188 227.739L400.983 220.323L412.891 213.448L428.191 220.809L416.188 227.739ZM400.679 221.007L392.735 218.798L401.833 213.545C403.389 212.647 404.33 211.638 404.657 210.517C405.016 209.379 404.847 208.206 404.15 207C403.454 205.793 402.523 205.06 401.357 204.802C400.224 204.525 398.879 204.835 397.323 205.734L388.225 210.986L390.284 203.002L400.679 221.007ZM449.642 209.441C446.943 210.999 444.187 212.019 441.374 212.5C438.593 212.962 435.911 212.901 433.33 212.317C430.73 211.701 428.34 210.604 426.159 209.027C424.01 207.431 422.211 205.379 420.763 202.87C419.296 200.33 418.418 197.746 418.129 195.118C417.853 192.441 418.108 189.838 418.892 187.311C419.659 184.751 420.938 182.383 422.729 180.206C424.552 178.01 426.813 176.133 429.512 174.575C432.243 172.998 434.999 171.978 437.78 171.516C440.562 171.053 443.252 171.13 445.852 171.746C448.433 172.33 450.798 173.42 452.948 175.016C455.11 176.562 456.925 178.605 458.392 181.145C459.84 183.654 460.702 186.247 460.978 188.924C461.285 191.583 461.056 194.193 460.289 196.752C459.505 199.28 458.217 201.632 456.425 203.81C454.634 205.987 452.373 207.864 449.642 209.441ZM444.39 200.343C445.438 199.738 446.296 198.988 446.965 198.094C447.666 197.181 448.148 196.183 448.412 195.1C448.689 193.966 448.724 192.781 448.519 191.545C448.295 190.277 447.807 188.992 447.055 187.69C446.304 186.388 445.444 185.339 444.476 184.543C443.49 183.715 442.446 183.154 441.344 182.858C440.256 182.513 439.141 182.416 438 182.566C436.891 182.698 435.813 183.067 434.765 183.672C433.717 184.277 432.842 185.036 432.142 185.949C431.472 186.843 430.999 187.857 430.722 188.991C430.459 190.074 430.439 191.25 430.663 192.518C430.869 193.754 431.347 195.023 432.099 196.325C432.851 197.627 433.72 198.692 434.706 199.52C435.673 200.316 436.701 200.887 437.79 201.232C438.892 201.527 439.997 201.609 441.107 201.477C442.247 201.326 443.342 200.948 444.39 200.343Z" fill="#393E46"/>
<path d="M349.116 376.16L358.295 384.424L368.991 378.249L363.968 389.532L373.146 397.797L360.863 396.506L355.839 407.789L353.271 395.708L340.987 394.417L351.684 388.241L349.116 376.16Z" fill="#FFD369"/>
<path d="M389.283 343.732L398.462 351.996L409.159 345.821L404.135 357.104L413.314 365.369L401.03 364.078L396.006 375.361L393.439 363.28L381.155 361.989L391.851 355.813L389.283 343.732Z" fill="#FFD369"/>
<path d="M300.949 394.732L310.128 402.996L320.824 396.821L315.801 408.104L324.979 416.369L312.696 415.078L307.672 426.361L305.104 414.28L292.82 412.989L303.517 406.813L300.949 394.732Z" fill="#FFD369"/>
<path d="M413.523 299.715L422.701 307.98L433.398 301.804L428.374 313.087L437.553 321.352L425.269 320.061L420.246 331.344L417.678 319.263L405.394 317.972L416.091 311.796L413.523 299.715Z" fill="#FFD369"/>
<path d="M250.71 393.715L259.888 401.98L270.585 395.804L265.561 407.087L274.74 415.352L262.456 414.061L257.433 425.344L254.865 413.263L242.581 411.972L253.278 405.796L250.71 393.715Z" fill="#FFD369"/>
<path d="M349.116 376.16L358.295 384.424L368.991 378.249L363.968 389.532L373.146 397.797L360.863 396.506L355.839 407.789L353.271 395.708L340.987 394.417L351.684 388.241L349.116 376.16Z" fill="#FFD369"/>
<path d="M389.283 343.732L398.462 351.996L409.159 345.821L404.135 357.104L413.314 365.369L401.03 364.078L396.006 375.361L393.439 363.28L381.155 361.989L391.851 355.813L389.283 343.732Z" fill="#FFD369"/>
<path d="M300.949 394.732L310.128 402.996L320.824 396.821L315.801 408.104L324.979 416.369L312.696 415.078L307.672 426.361L305.104 414.28L292.82 412.989L303.517 406.813L300.949 394.732Z" fill="#FFD369"/>
<path d="M413.523 299.715L422.701 307.98L433.398 301.804L428.374 313.087L437.553 321.352L425.269 320.061L420.246 331.344L417.678 319.263L405.394 317.972L416.091 311.796L413.523 299.715Z" fill="#FFD369"/>
<path d="M250.71 393.715L259.888 401.98L270.585 395.804L265.561 407.087L274.74 415.352L262.456 414.061L257.433 425.344L254.865 413.263L242.581 411.972L253.278 405.796L250.71 393.715Z" fill="#FFD369"/>
<path d="M234.116 176.974L231.548 164.893L242.244 158.717L229.961 157.426L227.393 145.345L222.369 156.628L210.086 155.337L219.264 163.602L214.241 174.885L224.937 168.709L234.116 176.974Z" fill="#FFD369"/>
<path d="M282.283 158.402L279.716 146.321L290.412 140.145L278.128 138.854L275.56 126.773L270.537 138.056L258.253 136.765L267.432 145.03L262.408 156.313L273.105 150.138L282.283 158.402Z" fill="#FFD369"/>
<path d="M193.949 209.402L191.381 197.321L202.078 191.145L189.794 189.854L187.226 177.773L182.202 189.056L169.919 187.765L179.097 196.03L174.074 207.313L184.77 201.138L193.949 209.402Z" fill="#FFD369"/>
<path d="M332.523 159.419L329.955 147.338L340.651 141.162L328.368 139.871L325.8 127.79L320.776 139.073L308.492 137.782L317.671 146.046L312.648 157.33L323.344 151.154L332.523 159.419Z" fill="#FFD369"/>
<path d="M169.71 253.419L167.142 241.338L177.838 235.162L165.555 233.871L162.987 221.79L157.963 233.073L145.679 231.782L154.858 240.046L149.835 251.33L160.531 245.154L169.71 253.419Z" fill="#FFD369"/>
</svg>
