<svg width="582" height="555" viewBox="0 0 582 555" fill="none" xmlns="http://www.w3.org/2000/svg">
<circle cx="291.433" cy="277.25" r="175.5" transform="rotate(-30 291.433 277.25)" fill="#EEEEEE" stroke="#393E46" stroke-width="30"/>
<circle cx="291.433" cy="277.25" r="105" transform="rotate(-30 291.433 277.25)" fill="#EEEEEE" stroke="#393E46" stroke-width="5"/>
<rect x="70.1888" y="327.043" width="432" height="134" transform="rotate(-30 70.1888 327.043)" fill="#EEEEEE" stroke="#393E46" stroke-width="18"/>
<path d="M139.131 376.152L109.211 348.97L120.786 342.287L145.659 365.46L139.848 368.815L132.741 335.385L143.077 329.417L167.856 352.645L162.283 355.862L155.032 322.515L165.702 316.355L174.283 355.857L162.232 362.814L141.968 343.776L145.207 341.906L151.181 369.194L139.131 376.152ZM185.636 321.358L200.497 312.778L205.172 320.875L190.311 329.455L185.636 321.358ZM193.604 333.397L210.275 323.772L215.17 332.25L187.448 348.255L168.198 314.914L195.3 299.266L200.195 307.744L184.144 317.012L193.604 333.397ZM219.497 329.752L200.247 296.41L218.061 286.125C222.665 283.467 226.54 282.331 229.684 282.717C232.81 283.071 235.107 284.519 236.573 287.059C237.545 288.742 237.939 290.525 237.757 292.409C237.588 294.243 236.834 296.054 235.496 297.843C234.157 299.631 232.186 301.277 229.583 302.781L229.05 299.659C231.654 298.155 234.104 297.228 236.399 296.877C238.726 296.507 240.8 296.728 242.623 297.538C244.46 298.298 245.937 299.647 247.055 301.584C248.723 304.474 248.818 307.425 247.34 310.438C245.894 313.432 242.868 316.259 238.264 318.917L219.497 329.752ZM226.01 315.513L232.774 311.608C234.012 310.893 234.805 310.139 235.151 309.346C235.53 308.535 235.471 307.701 234.976 306.843C234.481 305.986 233.788 305.518 232.896 305.44C232.036 305.344 230.987 305.653 229.749 306.368L222.223 310.713L217.933 303.283L223.934 299.818C225.205 299.085 226.006 298.347 226.34 297.604C226.686 296.811 226.63 296.017 226.172 295.224C225.695 294.398 225.036 293.953 224.195 293.888C223.385 293.806 222.345 294.131 221.074 294.864L215.835 297.889L226.01 315.513ZM270.617 300.238L251.367 266.896L267.8 257.408C271.515 255.263 275.18 254.058 278.794 253.792C282.391 253.494 285.697 254.125 288.715 255.685C291.733 257.245 294.232 259.74 296.212 263.169C298.21 266.631 299.14 270.074 299 273.499C298.842 276.892 297.745 280.088 295.707 283.085C293.651 286.05 290.765 288.605 287.05 290.75L270.617 300.238ZM276.798 284.984L281.514 282.261C283.101 281.345 284.308 280.245 285.135 278.964C285.993 277.664 286.417 276.234 286.405 274.674C286.375 273.082 285.865 271.429 284.875 269.714C283.904 268.031 282.745 266.795 281.4 266.005C280.055 265.215 278.605 264.867 277.05 264.96C275.527 265.035 273.971 265.531 272.384 266.448L267.668 269.17L276.798 284.984ZM308.157 250.62L323.018 242.04L327.693 250.138L312.832 258.718L308.157 250.62ZM316.124 262.66L332.795 253.035L337.69 261.513L309.969 277.518L290.719 244.176L317.821 228.529L322.716 237.007L306.664 246.275L316.124 262.66ZM356.298 250.77L337.048 217.428L353.099 208.161C356.211 206.364 359.188 205.323 362.029 205.037C364.902 204.733 367.508 205.177 369.846 206.367C372.166 207.525 374.069 209.391 375.554 211.963C377.039 214.535 377.703 217.115 377.546 219.704C377.39 222.292 376.47 224.77 374.789 227.138C373.121 229.456 370.731 231.513 367.619 233.31L357.807 238.975L360.031 231.277L367.539 244.28L356.298 250.77ZM360.746 232.515L352.802 230.306L361.9 225.054C363.456 224.155 364.397 223.146 364.724 222.026C365.083 220.887 364.914 219.715 364.218 218.508C363.521 217.301 362.59 216.569 361.424 216.31C360.291 216.033 358.946 216.344 357.39 217.242L348.292 222.495L350.351 214.511L360.746 232.515ZM391.23 230.602L371.98 197.26L388.032 187.992C391.144 186.196 394.121 185.154 396.962 184.869C399.835 184.565 402.441 185.008 404.779 186.198C407.099 187.357 409.002 189.222 410.487 191.794C411.972 194.366 412.636 196.947 412.479 199.535C412.304 202.092 411.357 204.523 409.639 206.827C407.953 209.113 405.554 211.154 402.442 212.951L392.63 218.616L394.964 211.108L402.471 224.112L391.23 230.602ZM411.188 219.079L395.983 211.663L407.891 204.788L423.191 212.149L411.188 219.079ZM395.679 212.347L387.735 210.138L396.833 204.885C398.389 203.987 399.33 202.978 399.657 201.857C400.016 200.719 399.847 199.546 399.15 198.339C398.454 197.133 397.523 196.4 396.357 196.142C395.224 195.865 393.879 196.175 392.323 197.074L383.225 202.326L385.284 194.342L395.679 212.347ZM444.642 200.781C441.943 202.339 439.187 203.359 436.374 203.84C433.593 204.302 430.911 204.241 428.33 203.657C425.73 203.041 423.34 201.944 421.159 200.367C419.01 198.771 417.211 196.719 415.763 194.21C414.296 191.67 413.418 189.086 413.129 186.458C412.853 183.781 413.108 181.178 413.892 178.651C414.659 176.091 415.938 173.723 417.729 171.545C419.552 169.35 421.813 167.473 424.512 165.914C427.243 164.338 429.999 163.318 432.78 162.855C435.562 162.393 438.252 162.469 440.852 163.086C443.433 163.67 445.798 164.76 447.948 166.356C450.11 167.902 451.925 169.945 453.392 172.485C454.84 174.994 455.702 177.587 455.978 180.264C456.285 182.923 456.056 185.533 455.289 188.092C454.505 190.62 453.217 192.972 451.425 195.15C449.634 197.327 447.373 199.204 444.642 200.781ZM439.39 191.683C440.438 191.078 441.296 190.328 441.965 189.434C442.666 188.521 443.148 187.523 443.412 186.439C443.689 185.306 443.724 184.121 443.519 182.885C443.295 181.617 442.807 180.332 442.055 179.03C441.304 177.728 440.444 176.679 439.476 175.883C438.49 175.055 437.446 174.493 436.344 174.198C435.256 173.853 434.141 173.755 433 173.906C431.891 174.038 430.813 174.407 429.765 175.012C428.717 175.617 427.842 176.376 427.142 177.289C426.472 178.183 425.999 179.197 425.722 180.331C425.459 181.414 425.439 182.59 425.663 183.858C425.869 185.094 426.347 186.363 427.099 187.665C427.851 188.967 428.72 190.032 429.706 190.86C430.673 191.656 431.701 192.227 432.79 192.572C433.892 192.867 434.997 192.949 436.107 192.816C437.247 192.666 438.342 192.288 439.39 191.683Z" fill="#393E46"/>
<path d="M148.564 397.979L147.314 395.814L152.216 392.984L153.466 395.149L148.564 397.979ZM159.643 391.583L158.393 389.418L163.295 386.588L164.545 388.753L159.643 391.583ZM170.722 385.186L169.472 383.021L174.374 380.191L175.624 382.356L170.722 385.186ZM181.801 378.79L180.551 376.625L185.453 373.795L186.703 375.96L181.801 378.79ZM192.88 372.393L191.63 370.228L196.532 367.398L197.782 369.563L192.88 372.393ZM207.355 369.094L200.955 358.009L202.868 358.521L199.23 360.621L197.93 358.37L203.161 355.35L210.161 367.474L207.355 369.094ZM221.914 360.966C220.921 361.539 219.891 361.81 218.826 361.778C217.754 361.735 216.723 361.376 215.733 360.701C214.743 360.025 213.864 359.024 213.097 357.696C212.331 356.368 211.903 355.106 211.813 353.911C211.723 352.716 211.931 351.649 212.436 350.71C212.935 349.761 213.681 348.999 214.674 348.426C215.678 347.846 216.711 347.581 217.771 347.63C218.836 347.662 219.864 348.016 220.854 348.691C221.845 349.366 222.723 350.368 223.49 351.696C224.256 353.024 224.685 354.285 224.774 355.481C224.864 356.676 224.659 357.748 224.161 358.698C223.667 359.63 222.918 360.386 221.914 360.966ZM220.544 358.593C221.017 358.319 221.35 357.95 221.543 357.484C221.748 357.012 221.782 356.431 221.645 355.74C221.519 355.043 221.193 354.238 220.666 353.326C220.14 352.413 219.606 351.729 219.065 351.271C218.535 350.807 218.015 350.546 217.503 350.487C217.004 350.421 216.517 350.525 216.044 350.799C215.582 351.065 215.248 351.435 215.044 351.907C214.851 352.373 214.817 352.954 214.942 353.651C215.079 354.342 215.411 355.143 215.938 356.056C216.465 356.968 216.993 357.656 217.522 358.12C218.064 358.577 218.584 358.839 219.084 358.904C219.595 358.963 220.082 358.859 220.544 358.593ZM237.999 351.679C237.006 352.252 235.977 352.523 234.912 352.491C233.84 352.448 232.809 352.089 231.819 351.413C230.828 350.738 229.95 349.736 229.183 348.409C228.416 347.081 227.988 345.819 227.899 344.624C227.809 343.428 228.017 342.362 228.522 341.423C229.02 340.473 229.766 339.712 230.759 339.139C231.764 338.559 232.796 338.293 233.857 338.343C234.922 338.375 235.95 338.728 236.94 339.404C237.93 340.079 238.809 341.081 239.575 342.409C240.342 343.736 240.77 344.998 240.86 346.193C240.95 347.389 240.745 348.461 240.247 349.411C239.753 350.343 239.004 351.099 237.999 351.679ZM236.629 349.306C237.103 349.032 237.436 348.663 237.629 348.197C237.834 347.725 237.867 347.144 237.73 346.453C237.605 345.756 237.279 344.951 236.752 344.039C236.226 343.126 235.692 342.442 235.15 341.984C234.621 341.52 234.1 341.259 233.589 341.2C233.089 341.134 232.603 341.238 232.129 341.511C231.667 341.778 231.334 342.148 231.13 342.62C230.936 343.085 230.903 343.667 231.028 344.364C231.165 345.055 231.497 345.856 232.024 346.769C232.55 347.681 233.079 348.369 233.608 348.833C234.149 349.29 234.67 349.552 235.17 349.617C235.681 349.676 236.167 349.572 236.629 349.306ZM250.518 344.174L251.797 327.269L253.859 326.079L252.579 342.984L250.518 344.174ZM248.355 337.986C247.766 338.326 247.17 338.494 246.566 338.488C245.956 338.471 245.374 338.291 244.822 337.948C244.275 337.586 243.804 337.065 243.411 336.384C243.018 335.702 242.805 335.04 242.772 334.397C242.751 333.747 242.886 333.154 243.176 332.616C243.466 332.079 243.906 331.641 244.495 331.301C245.084 330.961 245.683 330.799 246.294 330.816C246.904 330.834 247.48 331.017 248.02 331.367C248.561 331.717 249.028 332.232 249.421 332.914C249.815 333.595 250.031 334.263 250.07 334.918C250.103 335.561 249.974 336.151 249.684 336.688C249.387 337.214 248.944 337.646 248.355 337.986ZM247.535 336.566C247.916 336.346 248.132 336.014 248.183 335.569C248.227 335.112 248.063 334.56 247.689 333.914C247.316 333.267 246.924 332.854 246.513 332.676C246.095 332.486 245.696 332.501 245.315 332.721C244.945 332.934 244.733 333.273 244.677 333.736C244.626 334.181 244.787 334.727 245.16 335.374C245.527 336.009 245.919 336.421 246.337 336.611C246.766 336.795 247.165 336.78 247.535 336.566ZM259.882 338.952C259.305 339.286 258.708 339.453 258.093 339.454C257.483 339.437 256.907 339.253 256.367 338.903C255.819 338.542 255.349 338.021 254.956 337.339C254.562 336.658 254.349 335.996 254.317 335.353C254.284 334.709 254.413 334.119 254.703 333.582C255.005 333.038 255.445 332.6 256.022 332.267C256.623 331.92 257.228 331.755 257.838 331.772C258.449 331.789 259.024 331.973 259.565 332.323C260.105 332.673 260.572 333.188 260.966 333.869C261.359 334.551 261.575 335.219 261.615 335.873C261.647 336.517 261.519 337.107 261.228 337.644C260.931 338.169 260.483 338.606 259.882 338.952ZM259.062 337.532C259.443 337.312 259.659 336.979 259.71 336.534C259.754 336.078 259.59 335.526 259.216 334.879C258.85 334.244 258.458 333.832 258.04 333.642C257.622 333.452 257.223 333.467 256.842 333.687C256.473 333.9 256.26 334.238 256.204 334.702C256.153 335.147 256.314 335.693 256.688 336.339C257.061 336.986 257.456 337.404 257.874 337.594C258.297 337.766 258.693 337.745 259.062 337.532ZM284.277 324.96C283.331 325.507 282.357 325.861 281.357 326.022C280.369 326.177 279.411 326.145 278.484 325.926C277.569 325.7 276.723 325.303 275.949 324.734C275.185 324.159 274.544 323.421 274.024 322.52C273.504 321.619 273.185 320.695 273.069 319.746C272.963 318.79 273.048 317.856 273.322 316.944C273.595 316.031 274.046 315.186 274.675 314.408C275.303 313.629 276.091 312.967 277.037 312.42C277.996 311.867 278.963 311.516 279.94 311.368C280.928 311.213 281.88 311.248 282.796 311.474C283.716 311.681 284.564 312.07 285.339 312.638C286.114 313.207 286.764 313.948 287.291 314.86C287.811 315.761 288.127 316.694 288.239 317.661C288.344 318.617 288.26 319.551 287.986 320.463C287.717 321.358 287.268 322.194 286.64 322.972C286.023 323.744 285.236 324.407 284.277 324.96ZM289.734 325.251C289.26 325.524 288.78 325.732 288.293 325.875C287.817 326.011 287.305 326.083 286.756 326.093C286.218 326.095 285.611 326.03 284.934 325.897C284.269 325.758 283.509 325.55 282.656 325.272L285.171 322.828C285.729 323.075 286.215 323.249 286.627 323.349C287.039 323.45 287.397 323.482 287.699 323.446C288.013 323.404 288.309 323.302 288.586 323.142C289.325 322.716 289.81 322.035 290.04 321.102L292.147 321.871C291.901 323.338 291.096 324.464 289.734 325.251ZM282.897 322.57C283.44 322.256 283.883 321.877 284.227 321.433C284.582 320.981 284.833 320.482 284.979 319.936C285.126 319.389 285.155 318.826 285.066 318.246C284.982 317.648 284.777 317.066 284.451 316.5C284.117 315.923 283.716 315.454 283.246 315.094C282.788 314.727 282.286 314.47 281.739 314.324C281.193 314.178 280.636 314.145 280.067 314.227C279.51 314.302 278.96 314.497 278.417 314.81C277.875 315.123 277.426 315.506 277.071 315.957C276.715 316.409 276.464 316.908 276.318 317.454C276.183 317.994 276.154 318.557 276.231 319.144C276.32 319.724 276.531 320.303 276.864 320.88C277.191 321.446 277.587 321.918 278.051 322.296C278.521 322.656 279.023 322.913 279.558 323.066C280.104 323.212 280.662 323.244 281.231 323.163C281.799 323.081 282.355 322.883 282.897 322.57ZM301.051 315.183C300.278 315.63 299.498 315.88 298.713 315.933C297.939 315.979 297.208 315.793 296.52 315.375C295.825 314.944 295.201 314.25 294.648 313.292L291.608 308.026L294.31 306.466L297.12 311.333C297.566 312.107 298.058 312.585 298.595 312.768C299.136 312.933 299.707 312.842 300.307 312.495C300.723 312.255 301.043 311.955 301.266 311.595C301.483 311.224 301.577 310.8 301.548 310.324C301.513 309.836 301.332 309.309 301.005 308.743L298.345 304.136L301.047 302.576L306.427 311.895L303.864 313.375L302.384 310.811L303.281 311.286C303.343 312.113 303.164 312.87 302.746 313.558C302.332 314.228 301.767 314.77 301.051 315.183ZM317.965 305.418C316.903 306.031 315.848 306.363 314.799 306.414C313.762 306.459 312.818 306.25 311.966 305.787C311.107 305.313 310.411 304.614 309.878 303.69C309.338 302.755 309.075 301.806 309.089 300.843C309.107 299.863 309.375 298.953 309.893 298.116C310.403 297.267 311.132 296.569 312.079 296.022C312.991 295.496 313.924 295.219 314.878 295.191C315.837 295.146 316.74 295.363 317.588 295.844C318.428 296.313 319.138 297.05 319.718 298.055C319.778 298.159 319.843 298.283 319.911 298.429C319.973 298.562 320.031 298.69 320.087 298.812L312.517 303.182L311.607 301.606L317.756 298.056L316.987 299.124C316.707 298.639 316.366 298.274 315.963 298.029C315.56 297.785 315.128 297.664 314.669 297.668C314.202 297.66 313.738 297.79 313.276 298.056C312.814 298.323 312.464 298.663 312.226 299.078C311.993 299.474 311.885 299.914 311.902 300.397C311.913 300.868 312.061 301.352 312.348 301.848L312.588 302.264C312.881 302.772 313.251 303.159 313.697 303.425C314.148 303.673 314.635 303.784 315.16 303.758C315.689 303.715 316.23 303.533 316.784 303.213C317.281 302.926 317.671 302.601 317.953 302.238C318.248 301.868 318.464 301.442 318.603 300.962L320.94 301.691C320.793 302.423 320.473 303.108 319.98 303.747C319.48 304.374 318.808 304.931 317.965 305.418ZM309.841 295.906L310.739 292.062L313.649 290.382L311.954 294.686L309.841 295.906ZM334.105 296.099C333.286 296.573 332.481 296.806 331.692 296.8C330.903 296.793 330.15 296.528 329.431 296.004C328.706 295.468 328.03 294.657 327.404 293.572C326.77 292.475 326.412 291.481 326.329 290.59C326.257 289.692 326.415 288.9 326.804 288.213C327.193 287.527 327.78 286.957 328.565 286.504C329.443 285.997 330.342 285.74 331.261 285.733C332.192 285.719 333.066 285.953 333.884 286.435C334.713 286.911 335.411 287.64 335.977 288.622C336.537 289.591 336.816 290.554 336.814 291.51C336.823 292.46 336.592 293.34 336.121 294.15C335.655 294.943 334.983 295.593 334.105 296.099ZM328.518 299.141L321.098 286.289L323.8 284.729L326.93 290.15L328.346 293.004L329.998 295.746L331.098 297.651L328.518 299.141ZM332.358 294.152C332.808 293.892 333.146 293.558 333.373 293.151C333.611 292.736 333.724 292.278 333.712 291.777C333.704 291.258 333.547 290.733 333.241 290.202C332.927 289.659 332.551 289.26 332.112 289.006C331.684 288.745 331.231 288.614 330.753 288.613C330.286 288.605 329.828 288.731 329.378 288.991C328.927 289.251 328.583 289.588 328.345 290.003C328.107 290.417 327.994 290.875 328.007 291.376C328.019 291.877 328.182 292.399 328.495 292.942C328.802 293.473 329.172 293.875 329.607 294.147C330.034 294.408 330.487 294.539 330.965 294.541C331.443 294.542 331.907 294.412 332.358 294.152ZM349.511 287.205C348.448 287.818 347.393 288.151 346.345 288.201C345.308 288.246 344.364 288.037 343.512 287.574C342.653 287.1 341.957 286.401 341.423 285.477C340.883 284.542 340.62 283.593 340.634 282.63C340.653 281.65 340.921 280.74 341.438 279.903C341.949 279.054 342.678 278.356 343.624 277.809C344.537 277.283 345.47 277.006 346.424 276.978C347.383 276.933 348.286 277.15 349.133 277.631C349.974 278.1 350.684 278.837 351.264 279.842C351.324 279.946 351.388 280.07 351.457 280.216C351.519 280.349 351.577 280.477 351.632 280.599L344.063 284.969L343.153 283.393L349.302 279.843L348.533 280.911C348.253 280.426 347.911 280.061 347.508 279.816C347.105 279.572 346.674 279.451 346.214 279.455C345.748 279.447 345.284 279.577 344.822 279.843C344.36 280.11 344.01 280.451 343.772 280.865C343.539 281.261 343.431 281.701 343.448 282.184C343.458 282.655 343.607 283.139 343.893 283.635L344.133 284.051C344.427 284.559 344.796 284.946 345.243 285.212C345.693 285.46 346.181 285.571 346.705 285.546C347.234 285.502 347.776 285.32 348.33 285C348.827 284.713 349.216 284.388 349.499 284.025C349.794 283.655 350.01 283.23 350.148 282.749L352.486 283.478C352.339 284.21 352.018 284.895 351.525 285.534C351.025 286.161 350.354 286.718 349.511 287.205ZM341.386 277.693L342.285 273.849L345.194 272.169L343.499 276.473L341.386 277.693ZM364.647 278.466C363.642 279.046 362.63 279.361 361.612 279.41C360.587 279.448 359.639 279.233 358.769 278.765C357.91 278.291 357.214 277.592 356.68 276.669C356.14 275.733 355.883 274.781 355.909 273.812C355.939 272.824 356.23 271.902 356.782 271.044C357.327 270.175 358.102 269.451 359.107 268.871C360.088 268.304 361.062 268.019 362.03 268.014C362.991 267.999 363.864 268.272 364.651 268.834L363.205 271.17C362.709 270.871 362.216 270.724 361.727 270.73C361.249 270.728 360.796 270.851 360.369 271.098C359.907 271.365 359.552 271.708 359.302 272.13C359.053 272.551 358.928 273.015 358.929 273.523C358.941 274.024 359.104 274.546 359.417 275.089C359.73 275.631 360.101 276.033 360.529 276.294C360.968 276.549 361.433 276.673 361.922 276.668C362.412 276.662 362.887 276.526 363.349 276.259C363.776 276.013 364.112 275.688 364.357 275.285C364.606 274.864 364.722 274.358 364.705 273.768L367.461 273.701C367.548 274.651 367.347 275.545 366.86 276.38C366.366 277.204 365.628 277.9 364.647 278.466ZM379.022 270.167C378.029 270.74 377.026 271.042 376.012 271.073C375.01 271.097 374.077 270.882 373.214 270.426C372.355 269.952 371.659 269.253 371.125 268.329C370.585 267.394 370.328 266.441 370.354 265.472C370.384 264.485 370.663 263.569 371.192 262.725C371.726 261.862 372.489 261.144 373.482 260.571C374.464 260.004 375.461 259.706 376.475 259.675C377.482 259.632 378.412 259.842 379.264 260.305C380.116 260.767 380.815 261.472 381.362 262.419C381.895 263.343 382.152 264.295 382.134 265.276C382.108 266.245 381.829 267.161 381.295 268.023C380.761 268.885 380.004 269.6 379.022 270.167ZM377.742 267.95C378.193 267.69 378.537 267.352 378.775 266.938C379.013 266.523 379.126 266.066 379.113 265.564C379.095 265.052 378.932 264.53 378.625 263.999C378.312 263.456 377.941 263.054 377.513 262.793C377.086 262.532 376.633 262.401 376.155 262.4C375.677 262.399 375.213 262.528 374.762 262.788C374.312 263.048 373.968 263.385 373.73 263.8C373.492 264.214 373.373 264.675 373.374 265.183C373.386 265.684 373.549 266.206 373.862 266.749C374.169 267.28 374.539 267.682 374.974 267.954C375.413 268.209 375.872 268.337 376.35 268.338C376.828 268.339 377.292 268.21 377.742 267.95ZM390.188 263.535L384.808 254.217L387.51 252.657L392.89 261.975L390.188 263.535ZM385.409 252.138C384.912 252.424 384.425 252.513 383.947 252.405C383.468 252.296 383.106 252.028 382.859 251.601C382.612 251.174 382.561 250.726 382.707 250.257C382.852 249.788 383.172 249.411 383.669 249.124C384.166 248.837 384.65 248.743 385.121 248.84C385.587 248.925 385.942 249.182 386.189 249.609C386.449 250.059 386.51 250.525 386.371 251.005C386.238 251.467 385.917 251.844 385.409 252.138ZM402.943 256.356C402.146 256.816 401.325 257.167 400.479 257.409C399.638 257.633 398.921 257.723 398.327 257.681L398.108 255.222C398.688 255.24 399.317 255.17 399.995 255.01C400.677 254.831 401.301 254.579 401.867 254.252C402.49 253.892 402.886 253.564 403.053 253.267C403.232 252.964 403.245 252.679 403.091 252.414C402.965 252.194 402.768 252.092 402.5 252.109C402.237 252.106 401.921 252.173 401.553 252.309C401.185 252.444 400.782 252.6 400.344 252.776C399.919 252.944 399.477 253.099 399.019 253.24C398.555 253.37 398.099 253.433 397.651 253.43C397.203 253.427 396.778 253.318 396.377 253.103C395.987 252.882 395.639 252.505 395.332 251.974C394.992 251.385 394.86 250.769 394.935 250.125C395.021 249.475 395.314 248.836 395.814 248.209C396.307 247.57 397.004 246.99 397.905 246.47C398.54 246.104 399.227 245.8 399.965 245.558C400.703 245.317 401.368 245.202 401.96 245.215L402.17 247.657C401.566 247.652 401.007 247.736 400.491 247.91C399.981 248.066 399.512 248.268 399.085 248.514C398.485 248.861 398.093 249.195 397.909 249.517C397.725 249.838 397.706 250.126 397.853 250.38C397.986 250.611 398.185 250.728 398.448 250.73C398.722 250.725 399.047 250.661 399.422 250.537C399.796 250.413 400.197 250.267 400.623 250.098C401.054 249.91 401.501 249.752 401.965 249.623C402.429 249.493 402.88 249.433 403.316 249.443C403.758 249.435 404.179 249.538 404.58 249.753C404.975 249.956 405.326 250.323 405.632 250.854C405.966 251.432 406.089 252.045 406.003 252.696C405.91 253.335 405.607 253.971 405.096 254.605C404.596 255.232 403.878 255.816 402.943 256.356ZM419.958 241.29L418.708 239.125L423.61 236.295L424.86 238.46L419.958 241.29ZM431.037 234.893L429.787 232.728L434.689 229.898L435.939 232.063L431.037 234.893ZM442.116 228.497L440.866 226.332L445.768 223.502L447.018 225.667L442.116 228.497ZM453.196 222.1L451.946 219.935L456.847 217.105L458.097 219.27L453.196 222.1ZM464.275 215.704L463.025 213.539L467.926 210.709L469.176 212.874L464.275 215.704Z" fill="#393E46"/>
<path d="M349.116 376.16L358.295 384.425L368.991 378.249L363.968 389.532L373.146 397.797L360.863 396.506L355.839 407.789L353.271 395.708L340.987 394.417L351.684 388.241L349.116 376.16Z" fill="#FFD369"/>
<path d="M389.283 343.732L398.462 351.996L409.159 345.821L404.135 357.104L413.314 365.369L401.03 364.078L396.006 375.361L393.439 363.28L381.155 361.989L391.851 355.813L389.283 343.732Z" fill="#FFD369"/>
<path d="M300.949 394.732L310.128 402.996L320.824 396.821L315.801 408.104L324.979 416.369L312.696 415.078L307.672 426.361L305.104 414.28L292.82 412.989L303.517 406.813L300.949 394.732Z" fill="#FFD369"/>
<path d="M413.523 299.715L422.701 307.98L433.398 301.804L428.374 313.087L437.553 321.352L425.269 320.061L420.246 331.344L417.678 319.263L405.394 317.972L416.091 311.796L413.523 299.715Z" fill="#FFD369"/>
<path d="M250.71 393.715L259.888 401.98L270.585 395.804L265.561 407.087L274.74 415.352L262.456 414.061L257.433 425.344L254.865 413.263L242.581 411.972L253.278 405.796L250.71 393.715Z" fill="#FFD369"/>
<path d="M349.116 376.16L358.295 384.425L368.991 378.249L363.968 389.532L373.146 397.797L360.863 396.506L355.839 407.789L353.271 395.708L340.987 394.417L351.684 388.241L349.116 376.16Z" fill="#FFD369"/>
<path d="M389.283 343.732L398.462 351.996L409.159 345.821L404.135 357.104L413.314 365.369L401.03 364.078L396.006 375.361L393.439 363.28L381.155 361.989L391.851 355.813L389.283 343.732Z" fill="#FFD369"/>
<path d="M300.949 394.732L310.128 402.996L320.824 396.821L315.801 408.104L324.979 416.369L312.696 415.078L307.672 426.361L305.104 414.28L292.82 412.989L303.517 406.813L300.949 394.732Z" fill="#FFD369"/>
<path d="M413.523 299.715L422.701 307.98L433.398 301.804L428.374 313.087L437.553 321.352L425.269 320.061L420.246 331.344L417.678 319.263L405.394 317.972L416.091 311.796L413.523 299.715Z" fill="#FFD369"/>
<path d="M250.71 393.715L259.888 401.98L270.585 395.804L265.561 407.087L274.74 415.352L262.456 414.061L257.433 425.344L254.865 413.263L242.581 411.972L253.278 405.796L250.71 393.715Z" fill="#FFD369"/>
<path d="M234.116 176.974L231.548 164.893L242.244 158.717L229.961 157.426L227.393 145.345L222.369 156.628L210.086 155.337L219.264 163.602L214.241 174.885L224.937 168.71L234.116 176.974Z" fill="#FFD369"/>
<path d="M282.283 158.402L279.716 146.321L290.412 140.145L278.128 138.854L275.56 126.773L270.537 138.056L258.253 136.765L267.432 145.03L262.408 156.313L273.105 150.138L282.283 158.402Z" fill="#FFD369"/>
<path d="M193.949 209.402L191.381 197.321L202.078 191.145L189.794 189.854L187.226 177.773L182.202 189.056L169.919 187.765L179.097 196.03L174.074 207.313L184.77 201.138L193.949 209.402Z" fill="#FFD369"/>
<path d="M332.523 159.419L329.955 147.338L340.651 141.162L328.368 139.871L325.8 127.79L320.776 139.073L308.492 137.782L317.671 146.047L312.648 157.33L323.344 151.154L332.523 159.419Z" fill="#FFD369"/>
<path d="M169.71 253.419L167.142 241.338L177.838 235.162L165.555 233.871L162.987 221.79L157.963 233.073L145.679 231.782L154.858 240.047L149.835 251.33L160.531 245.154L169.71 253.419Z" fill="#FFD369"/>
</svg>
