<svg width="450" height="381" viewBox="0 0 450 381" fill="none" xmlns="http://www.w3.org/2000/svg">
<circle cx="225.5" cy="190.5" r="175.5" fill="#EEEEEE" stroke="#393E46" stroke-width="30"/>
<circle cx="225.5" cy="190.5" r="105" fill="#EEEEEE" stroke="#393E46" stroke-width="5"/>
<rect x="9" y="123" width="432" height="134" fill="#EEEEEE" stroke="#393E46" stroke-width="18"/>
<path d="M44.1513 200L31.8313 161.5H45.1963L55.1513 194.005H48.4413L59.0013 161.5H70.9363L80.7813 194.005H74.3463L84.7413 161.5H97.0613L84.7413 200H70.8263L62.7963 173.38H66.5363L58.0663 200H44.1513ZM111.824 175.8H128.984V185.15H111.824V175.8ZM112.704 190.21H131.954V200H99.9436V161.5H131.239V171.29H112.704V190.21ZM136.95 200V161.5H157.52C162.837 161.5 166.76 162.453 169.29 164.36C171.82 166.23 173.085 168.632 173.085 171.565C173.085 173.508 172.535 175.25 171.435 176.79C170.372 178.293 168.814 179.485 166.76 180.365C164.707 181.245 162.177 181.685 159.17 181.685L160.27 178.715C163.277 178.715 165.862 179.137 168.025 179.98C170.225 180.823 171.912 182.052 173.085 183.665C174.295 185.242 174.9 187.148 174.9 189.385C174.9 192.722 173.507 195.325 170.72 197.195C167.97 199.065 163.937 200 158.62 200H136.95ZM149.71 190.925H157.52C158.95 190.925 160.014 190.668 160.71 190.155C161.444 189.642 161.81 188.89 161.81 187.9C161.81 186.91 161.444 186.158 160.71 185.645C160.014 185.132 158.95 184.875 157.52 184.875H148.83V176.295H155.76C157.227 176.295 158.29 176.057 158.95 175.58C159.647 175.067 159.995 174.352 159.995 173.435C159.995 172.482 159.647 171.767 158.95 171.29C158.29 170.813 157.227 170.575 155.76 170.575H149.71V190.925ZM195.979 200V161.5H214.954C219.244 161.5 223.02 162.288 226.284 163.865C229.547 165.405 232.095 167.605 233.929 170.465C235.762 173.325 236.679 176.735 236.679 180.695C236.679 184.692 235.762 188.138 233.929 191.035C232.095 193.895 229.547 196.113 226.284 197.69C223.02 199.23 219.244 200 214.954 200H195.979ZM208.959 189.88H214.404C216.237 189.88 217.832 189.532 219.189 188.835C220.582 188.138 221.664 187.112 222.434 185.755C223.204 184.362 223.589 182.675 223.589 180.695C223.589 178.752 223.204 177.102 222.434 175.745C221.664 174.388 220.582 173.362 219.189 172.665C217.832 171.968 216.237 171.62 214.404 171.62H208.959V189.88ZM253.298 175.8H270.458V185.15H253.298V175.8ZM254.178 190.21H273.428V200H241.418V161.5H272.713V171.29H254.178V190.21ZM294.914 200V161.5H313.449C317.043 161.5 320.141 162.087 322.744 163.26C325.384 164.433 327.419 166.12 328.849 168.32C330.279 170.483 330.994 173.05 330.994 176.02C330.994 178.99 330.279 181.557 328.849 183.72C327.419 185.883 325.384 187.57 322.744 188.78C320.141 189.953 317.043 190.54 313.449 190.54H302.119L307.894 184.985V200H294.914ZM307.894 186.415L302.119 180.53H312.624C314.421 180.53 315.741 180.127 316.584 179.32C317.464 178.513 317.904 177.413 317.904 176.02C317.904 174.627 317.464 173.527 316.584 172.72C315.741 171.913 314.421 171.51 312.624 171.51H302.119L307.894 165.625V186.415ZM335.251 200V161.5H353.786C357.38 161.5 360.478 162.087 363.081 163.26C365.721 164.433 367.756 166.12 369.186 168.32C370.616 170.483 371.331 173.05 371.331 176.02C371.331 178.99 370.616 181.557 369.186 183.72C367.756 185.847 365.721 187.478 363.081 188.615C360.478 189.752 357.38 190.32 353.786 190.32H342.456L348.231 184.985V200H335.251ZM358.296 200L348.836 185.975H362.586L372.156 200H358.296ZM348.231 186.415L342.456 180.53H352.961C354.758 180.53 356.078 180.127 356.921 179.32C357.801 178.513 358.241 177.413 358.241 176.02C358.241 174.627 357.801 173.527 356.921 172.72C356.078 171.913 354.758 171.51 352.961 171.51H342.456L348.231 165.625V186.415ZM396.418 200.88C393.301 200.88 390.404 200.385 387.728 199.395C385.088 198.405 382.796 197.012 380.853 195.215C378.909 193.382 377.388 191.237 376.288 188.78C375.224 186.323 374.693 183.647 374.693 180.75C374.693 177.817 375.224 175.14 376.288 172.72C377.388 170.263 378.909 168.137 380.853 166.34C382.796 164.507 385.088 163.095 387.728 162.105C390.404 161.115 393.301 160.62 396.418 160.62C399.571 160.62 402.468 161.115 405.108 162.105C407.748 163.095 410.039 164.507 411.983 166.34C413.926 168.137 415.429 170.263 416.493 172.72C417.593 175.14 418.143 177.817 418.143 180.75C418.143 183.647 417.593 186.323 416.493 188.78C415.429 191.237 413.926 193.382 411.983 195.215C410.039 197.012 407.748 198.405 405.108 199.395C402.468 200.385 399.571 200.88 396.418 200.88ZM396.418 190.375C397.628 190.375 398.746 190.155 399.773 189.715C400.836 189.275 401.753 188.652 402.523 187.845C403.329 187.002 403.953 185.993 404.393 184.82C404.833 183.61 405.053 182.253 405.053 180.75C405.053 179.247 404.833 177.908 404.393 176.735C403.953 175.525 403.329 174.517 402.523 173.71C401.753 172.867 400.836 172.225 399.773 171.785C398.746 171.345 397.628 171.125 396.418 171.125C395.208 171.125 394.071 171.345 393.008 171.785C391.981 172.225 391.064 172.867 390.258 173.71C389.488 174.517 388.883 175.525 388.443 176.735C388.003 177.908 387.783 179.247 387.783 180.75C387.783 182.253 388.003 183.61 388.443 184.82C388.883 185.993 389.488 187.002 390.258 187.845C391.064 188.652 391.981 189.275 393.008 189.715C394.071 190.155 395.208 190.375 396.418 190.375Z" fill="#393E46"/>
<path d="M39.208 223.62V221.12H44.868V223.62H39.208ZM52.0009 223.62V221.12H57.6609V223.62H52.0009ZM64.7939 223.62V221.12H70.4539V223.62H64.7939ZM77.5869 223.62V221.12H83.2469V223.62H77.5869ZM90.3798 223.62V221.12H96.0398V223.62H90.3798ZM119.499 228.16C118.272 228.16 117.192 227.92 116.259 227.44C115.339 226.96 114.625 226.307 114.119 225.48C113.612 224.64 113.359 223.687 113.359 222.62C113.359 221.54 113.605 220.587 114.099 219.76C114.605 218.92 115.292 218.267 116.159 217.8C117.025 217.32 118.005 217.08 119.099 217.08C120.152 217.08 121.099 217.307 121.939 217.76C122.792 218.2 123.465 218.84 123.959 219.68C124.452 220.507 124.699 221.5 124.699 222.66C124.699 222.78 124.692 222.92 124.679 223.08C124.665 223.227 124.652 223.367 124.639 223.5H115.899V221.68H122.999L121.799 222.22C121.799 221.66 121.685 221.173 121.459 220.76C121.232 220.347 120.919 220.027 120.519 219.8C120.119 219.56 119.652 219.44 119.119 219.44C118.585 219.44 118.112 219.56 117.699 219.8C117.299 220.027 116.985 220.353 116.759 220.78C116.532 221.193 116.419 221.687 116.419 222.26V222.74C116.419 223.327 116.545 223.847 116.799 224.3C117.065 224.74 117.432 225.08 117.899 225.32C118.379 225.547 118.939 225.66 119.579 225.66C120.152 225.66 120.652 225.573 121.079 225.4C121.519 225.227 121.919 224.967 122.279 224.62L123.939 226.42C123.445 226.98 122.825 227.413 122.079 227.72C121.332 228.013 120.472 228.16 119.499 228.16ZM130.123 228L134.943 221.68L134.883 223.4L130.263 217.24H133.763L136.683 221.26L135.363 221.3L138.383 217.24H141.703L137.063 223.34V221.66L141.863 228H138.323L135.263 223.72L136.563 223.9L133.523 228H130.123ZM153.245 228.16C152.085 228.16 151.052 227.927 150.145 227.46C149.239 226.98 148.525 226.32 148.005 225.48C147.499 224.64 147.245 223.687 147.245 222.62C147.245 221.54 147.499 220.587 148.005 219.76C148.525 218.92 149.239 218.267 150.145 217.8C151.052 217.32 152.085 217.08 153.245 217.08C154.379 217.08 155.365 217.32 156.205 217.8C157.045 218.267 157.665 218.94 158.065 219.82L155.645 221.12C155.365 220.613 155.012 220.24 154.585 220C154.172 219.76 153.719 219.64 153.225 219.64C152.692 219.64 152.212 219.76 151.785 220C151.359 220.24 151.019 220.58 150.765 221.02C150.525 221.46 150.405 221.993 150.405 222.62C150.405 223.247 150.525 223.78 150.765 224.22C151.019 224.66 151.359 225 151.785 225.24C152.212 225.48 152.692 225.6 153.225 225.6C153.719 225.6 154.172 225.487 154.585 225.26C155.012 225.02 155.365 224.64 155.645 224.12L158.065 225.44C157.665 226.307 157.045 226.98 156.205 227.46C155.365 227.927 154.379 228.16 153.245 228.16ZM170.065 228.16C168.838 228.16 167.758 227.92 166.825 227.44C165.905 226.96 165.192 226.307 164.685 225.48C164.178 224.64 163.925 223.687 163.925 222.62C163.925 221.54 164.172 220.587 164.665 219.76C165.172 218.92 165.858 218.267 166.725 217.8C167.592 217.32 168.572 217.08 169.665 217.08C170.718 217.08 171.665 217.307 172.505 217.76C173.358 218.2 174.032 218.84 174.525 219.68C175.018 220.507 175.265 221.5 175.265 222.66C175.265 222.78 175.258 222.92 175.245 223.08C175.232 223.227 175.218 223.367 175.205 223.5H166.465V221.68H173.565L172.365 222.22C172.365 221.66 172.252 221.173 172.025 220.76C171.798 220.347 171.485 220.027 171.085 219.8C170.685 219.56 170.218 219.44 169.685 219.44C169.152 219.44 168.678 219.56 168.265 219.8C167.865 220.027 167.552 220.353 167.325 220.78C167.098 221.193 166.985 221.687 166.985 222.26V222.74C166.985 223.327 167.112 223.847 167.365 224.3C167.632 224.74 167.998 225.08 168.465 225.32C168.945 225.547 169.505 225.66 170.145 225.66C170.718 225.66 171.218 225.573 171.645 225.4C172.085 225.227 172.485 224.967 172.845 224.62L174.505 226.42C174.012 226.98 173.392 227.413 172.645 227.72C171.898 228.013 171.038 228.16 170.065 228.16ZM182.342 228V213.16H185.462V228H182.342ZM193.358 228V213.16H196.478V228H193.358ZM209.714 228.16C208.487 228.16 207.407 227.92 206.474 227.44C205.554 226.96 204.84 226.307 204.334 225.48C203.827 224.64 203.574 223.687 203.574 222.62C203.574 221.54 203.82 220.587 204.314 219.76C204.82 218.92 205.507 218.267 206.374 217.8C207.24 217.32 208.22 217.08 209.314 217.08C210.367 217.08 211.314 217.307 212.154 217.76C213.007 218.2 213.68 218.84 214.174 219.68C214.667 220.507 214.914 221.5 214.914 222.66C214.914 222.78 214.907 222.92 214.894 223.08C214.88 223.227 214.867 223.367 214.854 223.5H206.114V221.68H213.214L212.014 222.22C212.014 221.66 211.9 221.173 211.674 220.76C211.447 220.347 211.134 220.027 210.734 219.8C210.334 219.56 209.867 219.44 209.334 219.44C208.8 219.44 208.327 219.56 207.914 219.8C207.514 220.027 207.2 220.353 206.974 220.78C206.747 221.193 206.634 221.687 206.634 222.26V222.74C206.634 223.327 206.76 223.847 207.014 224.3C207.28 224.74 207.647 225.08 208.114 225.32C208.594 225.547 209.154 225.66 209.794 225.66C210.367 225.66 210.867 225.573 211.294 225.4C211.734 225.227 212.134 224.967 212.494 224.62L214.154 226.42C213.66 226.98 213.04 227.413 212.294 227.72C211.547 228.013 210.687 228.16 209.714 228.16ZM228.531 217.08C229.384 217.08 230.144 217.253 230.811 217.6C231.491 217.933 232.024 218.453 232.411 219.16C232.797 219.853 232.991 220.747 232.991 221.84V228H229.871V222.32C229.871 221.453 229.677 220.813 229.291 220.4C228.917 219.987 228.384 219.78 227.691 219.78C227.197 219.78 226.751 219.887 226.351 220.1C225.964 220.3 225.657 220.613 225.431 221.04C225.217 221.467 225.111 222.013 225.111 222.68V228H221.991V217.24H224.971V220.22L224.411 219.32C224.797 218.6 225.351 218.047 226.071 217.66C226.791 217.273 227.611 217.08 228.531 217.08ZM246.097 228.16C244.937 228.16 243.904 227.927 242.997 227.46C242.09 226.98 241.377 226.32 240.857 225.48C240.35 224.64 240.097 223.687 240.097 222.62C240.097 221.54 240.35 220.587 240.857 219.76C241.377 218.92 242.09 218.267 242.997 217.8C243.904 217.32 244.937 217.08 246.097 217.08C247.23 217.08 248.217 217.32 249.057 217.8C249.897 218.267 250.517 218.94 250.917 219.82L248.497 221.12C248.217 220.613 247.864 220.24 247.437 220C247.024 219.76 246.57 219.64 246.077 219.64C245.544 219.64 245.064 219.76 244.637 220C244.21 220.24 243.87 220.58 243.617 221.02C243.377 221.46 243.257 221.993 243.257 222.62C243.257 223.247 243.377 223.78 243.617 224.22C243.87 224.66 244.21 225 244.637 225.24C245.064 225.48 245.544 225.6 246.077 225.6C246.57 225.6 247.024 225.487 247.437 225.26C247.864 225.02 248.217 224.64 248.497 224.12L250.917 225.44C250.517 226.307 249.897 226.98 249.057 227.46C248.217 227.927 247.23 228.16 246.097 228.16ZM262.917 228.16C261.69 228.16 260.61 227.92 259.677 227.44C258.757 226.96 258.043 226.307 257.537 225.48C257.03 224.64 256.777 223.687 256.777 222.62C256.777 221.54 257.023 220.587 257.517 219.76C258.023 218.92 258.71 218.267 259.577 217.8C260.443 217.32 261.423 217.08 262.517 217.08C263.57 217.08 264.517 217.307 265.357 217.76C266.21 218.2 266.883 218.84 267.377 219.68C267.87 220.507 268.117 221.5 268.117 222.66C268.117 222.78 268.11 222.92 268.097 223.08C268.083 223.227 268.07 223.367 268.057 223.5H259.317V221.68H266.417L265.217 222.22C265.217 221.66 265.103 221.173 264.877 220.76C264.65 220.347 264.337 220.027 263.937 219.8C263.537 219.56 263.07 219.44 262.537 219.44C262.003 219.44 261.53 219.56 261.117 219.8C260.717 220.027 260.403 220.353 260.177 220.78C259.95 221.193 259.837 221.687 259.837 222.26V222.74C259.837 223.327 259.963 223.847 260.217 224.3C260.483 224.74 260.85 225.08 261.317 225.32C261.797 225.547 262.357 225.66 262.997 225.66C263.57 225.66 264.07 225.573 264.497 225.4C264.937 225.227 265.337 224.967 265.697 224.62L267.357 226.42C266.863 226.98 266.243 227.413 265.497 227.72C264.75 228.013 263.89 228.16 262.917 228.16ZM288.318 228L284.438 217.24H287.378L290.598 226.5H289.198L292.558 217.24H295.198L298.458 226.5H297.058L300.378 217.24H303.138L299.238 228H296.218L293.358 220.06H294.278L291.318 228H288.318ZM314.635 228.16C313.409 228.16 312.329 227.92 311.395 227.44C310.475 226.96 309.762 226.307 309.255 225.48C308.749 224.64 308.495 223.687 308.495 222.62C308.495 221.54 308.742 220.587 309.235 219.76C309.742 218.92 310.429 218.267 311.295 217.8C312.162 217.32 313.142 217.08 314.235 217.08C315.289 217.08 316.235 217.307 317.075 217.76C317.929 218.2 318.602 218.84 319.095 219.68C319.589 220.507 319.835 221.5 319.835 222.66C319.835 222.78 319.829 222.92 319.815 223.08C319.802 223.227 319.789 223.367 319.775 223.5H311.035V221.68H318.135L316.935 222.22C316.935 221.66 316.822 221.173 316.595 220.76C316.369 220.347 316.055 220.027 315.655 219.8C315.255 219.56 314.789 219.44 314.255 219.44C313.722 219.44 313.249 219.56 312.835 219.8C312.435 220.027 312.122 220.353 311.895 220.78C311.669 221.193 311.555 221.687 311.555 222.26V222.74C311.555 223.327 311.682 223.847 311.935 224.3C312.202 224.74 312.569 225.08 313.035 225.32C313.515 225.547 314.075 225.66 314.715 225.66C315.289 225.66 315.789 225.573 316.215 225.4C316.655 225.227 317.055 224.967 317.415 224.62L319.075 226.42C318.582 226.98 317.962 227.413 317.215 227.72C316.469 228.013 315.609 228.16 314.635 228.16ZM333.273 228.16C332.326 228.16 331.513 227.96 330.833 227.56C330.153 227.16 329.633 226.553 329.273 225.74C328.913 224.913 328.733 223.873 328.733 222.62C328.733 221.353 328.919 220.313 329.293 219.5C329.679 218.687 330.213 218.08 330.893 217.68C331.573 217.28 332.366 217.08 333.273 217.08C334.286 217.08 335.193 217.307 335.993 217.76C336.806 218.213 337.446 218.853 337.913 219.68C338.393 220.507 338.633 221.487 338.633 222.62C338.633 223.74 338.393 224.713 337.913 225.54C337.446 226.367 336.806 227.013 335.993 227.48C335.193 227.933 334.286 228.16 333.273 228.16ZM326.913 228V213.16H330.033V219.42L329.833 222.6L329.893 225.8V228H326.913ZM332.733 225.6C333.253 225.6 333.713 225.48 334.113 225.24C334.526 225 334.853 224.66 335.093 224.22C335.346 223.767 335.473 223.233 335.473 222.62C335.473 221.993 335.346 221.46 335.093 221.02C334.853 220.58 334.526 220.24 334.113 220C333.713 219.76 333.253 219.64 332.733 219.64C332.213 219.64 331.746 219.76 331.333 220C330.919 220.24 330.593 220.58 330.353 221.02C330.113 221.46 329.993 221.993 329.993 222.62C329.993 223.233 330.113 223.767 330.353 224.22C330.593 224.66 330.919 225 331.333 225.24C331.746 225.48 332.213 225.6 332.733 225.6ZM355.985 223.62V221.12H361.645V223.62H355.985ZM368.778 223.62V221.12H374.438V223.62H368.778ZM381.571 223.62V221.12H387.231V223.62H381.571ZM394.364 223.62V221.12H400.024V223.62H394.364ZM407.157 223.62V221.12H412.817V223.62H407.157Z" fill="#393E46"/>
<path d="M226 305L229.817 316.747L242.168 316.747L232.176 324.007L235.992 335.753L226 328.493L216.008 335.753L219.824 324.007L209.832 316.747L222.183 316.747L226 305Z" fill="#FFD369"/>
<path d="M277 297L280.817 308.747L293.168 308.747L283.176 316.007L286.992 327.753L277 320.493L267.008 327.753L270.824 316.007L260.832 308.747L273.183 308.747L277 297Z" fill="#FFD369"/>
<path d="M175 297L178.817 308.747L191.168 308.747L181.176 316.007L184.992 327.753L175 320.493L165.008 327.753L168.824 316.007L158.832 308.747L171.183 308.747L175 297Z" fill="#FFD369"/>
<path d="M320 271L323.817 282.747L336.168 282.747L326.176 290.007L329.992 301.753L320 294.493L310.008 301.753L313.824 290.007L303.832 282.747L316.183 282.747L320 271Z" fill="#FFD369"/>
<path d="M132 271L135.817 282.747L148.168 282.747L138.176 290.007L141.992 301.753L132 294.493L122.008 301.753L125.824 290.007L115.832 282.747L128.183 282.747L132 271Z" fill="#FFD369"/>
<path d="M226 305L229.817 316.747L242.168 316.747L232.176 324.007L235.992 335.753L226 328.493L216.008 335.753L219.824 324.007L209.832 316.747L222.183 316.747L226 305Z" fill="#FFD369"/>
<path d="M277 297L280.817 308.747L293.168 308.747L283.176 316.007L286.992 327.753L277 320.493L267.008 327.753L270.824 316.007L260.832 308.747L273.183 308.747L277 297Z" fill="#FFD369"/>
<path d="M175 297L178.817 308.747L191.168 308.747L181.176 316.007L184.992 327.753L175 320.493L165.008 327.753L168.824 316.007L158.832 308.747L171.183 308.747L175 297Z" fill="#FFD369"/>
<path d="M320 271L323.817 282.747L336.168 282.747L326.176 290.007L329.992 301.753L320 294.493L310.008 301.753L313.824 290.007L303.832 282.747L316.183 282.747L320 271Z" fill="#FFD369"/>
<path d="M132 271L135.817 282.747L148.168 282.747L138.176 290.007L141.992 301.753L132 294.493L122.008 301.753L125.824 290.007L115.832 282.747L128.183 282.747L132 271Z" fill="#FFD369"/>
<path d="M226 75L229.817 63.2533L242.168 63.2533L232.176 55.9934L235.992 44.2467L226 51.5066L216.008 44.2467L219.824 55.9934L209.832 63.2533L222.183 63.2533L226 75Z" fill="#FFD369"/>
<path d="M277 83L280.817 71.2533L293.168 71.2533L283.176 63.9934L286.992 52.2467L277 59.5066L267.008 52.2467L270.824 63.9934L260.832 71.2533L273.183 71.2533L277 83Z" fill="#FFD369"/>
<path d="M175 83L178.817 71.2533L191.168 71.2533L181.176 63.9934L184.992 52.2467L175 59.5066L165.008 52.2467L168.824 63.9934L158.832 71.2533L171.183 71.2533L175 83Z" fill="#FFD369"/>
<path d="M320 109L323.817 97.2533L336.168 97.2533L326.176 89.9934L329.992 78.2467L320 85.5066L310.008 78.2467L313.824 89.9934L303.832 97.2533L316.183 97.2533L320 109Z" fill="#FFD369"/>
<path d="M132 109L135.817 97.2533L148.168 97.2533L138.176 89.9934L141.992 78.2467L132 85.5066L122.008 78.2467L125.824 89.9934L115.832 97.2533L128.183 97.2533L132 109Z" fill="#FFD369"/>
</svg>
