<svg width="408" height="241" viewBox="0 0 408 241" fill="none" xmlns="http://www.w3.org/2000/svg">
<path d="M123.5 75V190L146 168V68L172 82V78.5L146 62.5L123.5 75Z" fill="black" stroke="black"/>
<path d="M171 85L151 74V165.5L155.5 161.5L167.5 173.5L171 169.5V85Z" fill="#F24E1E" stroke="black" stroke-width="0.5"/>
<path d="M141 28.5V62.5L148 58L175.5 76.5V166.5L184.5 158V3L141 28.5Z" fill="black" stroke="black"/>
<path d="M191 151V0.5L237 28.5V143L219 125.5L191 151Z" fill="#F24E1E" stroke="black" stroke-width="0.5"/>
<path d="M264 45.5L241 59.5V66L264 52V168.5L288 190V59.5L264 45.5Z" fill="#F24E1E" stroke="black" stroke-width="0.5"/>
<path d="M241 68.5V148L261.5 165.5V56L241 68.5Z" fill="black" stroke="black"/>
<path d="M92 229L1 234.5H97.5L154.5 180L169.5 191L217.5 145L314.5 234.5H407.5L319 225.5L217.5 134L169.5 180L154.5 168L92 229Z" fill="black" stroke="black"/>
<path d="M126.15 216.955V212.182H145.113V216.955H138.55V234H132.712V216.955H126.15ZM167.453 223.091C167.453 225.52 166.98 227.569 166.036 229.238C165.091 230.9 163.816 232.161 162.211 233.02C160.606 233.872 158.816 234.298 156.842 234.298C154.853 234.298 153.056 233.869 151.451 233.009C149.853 232.143 148.582 230.879 147.637 229.217C146.7 227.548 146.231 225.506 146.231 223.091C146.231 220.662 146.7 218.616 147.637 216.955C148.582 215.286 149.853 214.025 151.451 213.173C153.056 212.313 154.853 211.884 156.842 211.884C158.816 211.884 160.606 212.313 162.211 213.173C163.816 214.025 165.091 215.286 166.036 216.955C166.98 218.616 167.453 220.662 167.453 223.091ZM161.359 223.091C161.359 221.784 161.185 220.683 160.837 219.788C160.496 218.886 159.988 218.205 159.314 217.743C158.646 217.274 157.822 217.04 156.842 217.04C155.862 217.04 155.034 217.274 154.36 217.743C153.692 218.205 153.184 218.886 152.836 219.788C152.495 220.683 152.325 221.784 152.325 223.091C152.325 224.398 152.495 225.502 152.836 226.404C153.184 227.299 153.692 227.981 154.36 228.45C155.034 228.911 155.862 229.142 156.842 229.142C157.822 229.142 158.646 228.911 159.314 228.45C159.988 227.981 160.496 227.299 160.837 226.404C161.185 225.502 161.359 224.398 161.359 223.091ZM189.071 212.182V234H184.128L176.244 222.537H176.117V234H170.193V212.182H175.222L182.977 223.602H183.148V212.182H189.071ZM197.85 234V212.182H203.773V229.227H212.594V234H197.85ZM235.275 223.091C235.275 225.52 234.803 227.569 233.858 229.238C232.914 230.9 231.639 232.161 230.034 233.02C228.428 233.872 226.639 234.298 224.664 234.298C222.676 234.298 220.879 233.869 219.274 233.009C217.676 232.143 216.404 230.879 215.46 229.217C214.522 227.548 214.053 225.506 214.053 223.091C214.053 220.662 214.522 218.616 215.46 216.955C216.404 215.286 217.676 214.025 219.274 213.173C220.879 212.313 222.676 211.884 224.664 211.884C226.639 211.884 228.428 212.313 230.034 213.173C231.639 214.025 232.914 215.286 233.858 216.955C234.803 218.616 235.275 220.662 235.275 223.091ZM229.181 223.091C229.181 221.784 229.007 220.683 228.659 219.788C228.318 218.886 227.811 218.205 227.136 217.743C226.468 217.274 225.644 217.04 224.664 217.04C223.684 217.04 222.857 217.274 222.182 217.743C221.514 218.205 221.007 218.886 220.659 219.788C220.318 220.683 220.147 221.784 220.147 223.091C220.147 224.398 220.318 225.502 220.659 226.404C221.007 227.299 221.514 227.981 222.182 228.45C222.857 228.911 223.684 229.142 224.664 229.142C225.644 229.142 226.468 228.911 227.136 228.45C227.811 227.981 228.318 227.299 228.659 226.404C229.007 225.502 229.181 224.398 229.181 223.091ZM252.185 219.384C252.092 219.007 251.947 218.677 251.748 218.393C251.549 218.102 251.3 217.857 251.002 217.658C250.711 217.452 250.37 217.299 249.979 217.2C249.596 217.093 249.173 217.04 248.712 217.04C247.717 217.04 246.869 217.278 246.165 217.754C245.469 218.229 244.937 218.915 244.567 219.81C244.205 220.705 244.024 221.784 244.024 223.048C244.024 224.327 244.198 225.42 244.546 226.33C244.894 227.239 245.413 227.935 246.102 228.418C246.79 228.901 247.646 229.142 248.669 229.142C249.571 229.142 250.32 229.011 250.917 228.748C251.521 228.485 251.972 228.112 252.27 227.629C252.568 227.146 252.717 226.578 252.717 225.925L253.74 226.031H248.754V221.812H258.428V224.838C258.428 226.827 258.005 228.528 257.16 229.941C256.322 231.347 255.164 232.427 253.687 233.18C252.217 233.925 250.53 234.298 248.626 234.298C246.503 234.298 244.638 233.847 243.033 232.945C241.428 232.043 240.175 230.758 239.273 229.089C238.378 227.42 237.93 225.435 237.93 223.134C237.93 221.33 238.204 219.732 238.751 218.339C239.305 216.947 240.072 215.772 241.052 214.813C242.032 213.847 243.165 213.119 244.45 212.629C245.736 212.132 247.114 211.884 248.584 211.884C249.876 211.884 251.077 212.068 252.185 212.438C253.3 212.8 254.283 213.318 255.136 213.993C255.995 214.661 256.688 215.452 257.213 216.369C257.739 217.285 258.058 218.29 258.172 219.384H252.185ZM282.326 223.091C282.326 225.52 281.854 227.569 280.909 229.238C279.964 230.9 278.689 232.161 277.084 233.02C275.479 233.872 273.689 234.298 271.715 234.298C269.726 234.298 267.93 233.869 266.324 233.009C264.726 232.143 263.455 230.879 262.51 229.217C261.573 227.548 261.104 225.506 261.104 223.091C261.104 220.662 261.573 218.616 262.51 216.955C263.455 215.286 264.726 214.025 266.324 213.173C267.93 212.313 269.726 211.884 271.715 211.884C273.689 211.884 275.479 212.313 277.084 213.173C278.689 214.025 279.964 215.286 280.909 216.955C281.854 218.616 282.326 220.662 282.326 223.091ZM276.232 223.091C276.232 221.784 276.058 220.683 275.71 219.788C275.369 218.886 274.861 218.205 274.187 217.743C273.519 217.274 272.695 217.04 271.715 217.04C270.735 217.04 269.907 217.274 269.233 217.743C268.565 218.205 268.057 218.886 267.709 219.788C267.368 220.683 267.198 221.784 267.198 223.091C267.198 224.398 267.368 225.502 267.709 226.404C268.057 227.299 268.565 227.981 269.233 228.45C269.907 228.911 270.735 229.142 271.715 229.142C272.695 229.142 273.519 228.911 274.187 228.45C274.861 227.981 275.369 227.299 275.71 226.404C276.058 225.502 276.232 224.398 276.232 223.091Z" fill="black"/>
</svg>
